<?xml version="1.0" encoding="UTF-8"?>
<!DOCTYPE svg  PUBLIC '-//W3C//DTD SVG 1.1//EN'  'http://www.w3.org/Graphics/SVG/1.1/DTD/svg11.dtd'>
<svg enable-background="new 0 0 3964.0879 3246.2964" version="1.1" viewBox="0 0 3964.0879 3246.2964" xml:space="preserve" xmlns="http://www.w3.org/2000/svg">
	<path d="m2131.5 1629.8c4.1775-3.5336 7.9526-1.2368 11.614-0.3831 29.218 6.8125 58.092 14.914 86.374 24.894 50.246 17.731 100.61 35.182 150.37 54.215 31.076 11.888 61.23 26.236 90.656 41.928 4.7026 2.5079 9.3647 5.0983 14.138 7.4648 6.804 3.3729 10.114 2.0753 11.329-5.2002 3.6377-21.793 10.297-42.691 17.875-63.356 1.3696-3.735 2.4744-7.6001 3.3193-11.488 1.9221-8.8416 1.1099-10.762-7.0613-13.55-27.733-9.4636-55.544-18.698-83.337-27.985-6.946-2.3208-14.17-3.9661-20.866-6.8507-27.233-11.732-56.084-16.809-85.103-21.148-46.772-6.9928-93.7-13.032-140.33-20.857-21.525-3.6119-43.545-6.4387-63.829-15.253-5.1938-2.257-9.062 1.8359-13.448 0.1554-0.9819-0.3763-2.0608-1.5924-2.2854-2.6021-0.3533-1.5905 0.7856-2.5928 2.4167-2.4705 9.8982 0.7416 19.781 1.7631 29.691 2.266 32.586 1.6547 65.221 2.5569 97.766 4.7966 56.754 3.9056 112.07 15.418 166.3 32.64 36.182 11.493 72.623 22.181 109 33.041 17.781 5.3077 18.565 4.5889 21.643-13.833 6.4731-38.745 12.975-77.486 19.584-116.21 2.25-13.182 3.4958-26.372 2.9983-39.778-1.2102-32.619-0.8997-65.287-4.3511-97.828-1.1851-11.172-2.323-22.64 1.9233-33.64 0.6895-1.7869 1.2551-3.9333 3.7437-3.4596 1.1392 0.2167 2.4824 1.1768 3.0598 2.1853 1.6455 2.8734 3.083 5.8877 4.3545 8.9495 3.5723 8.6046 6.7363 17.389 10.562 25.877 27.849 61.79 35.104 126.59 28.588 193.44-0.9038 9.2694-1.925 18.534-2.5403 27.824-1.3232 19.977-3.698 39.764-8.2117 59.322-3.491 15.126-1.7944 18.49 11.101 26.166 49.258 29.321 96.83 61.131 143.54 94.386 22.31 15.883 43.62 32.805 64.317 50.575 10.072 8.6479 19.234 18.374 28.586 27.831 2.2788 2.3044 3.8867 5.3672 5.4133 8.2852 0.9075 1.7351 1.0317 4.0559-0.8965 5.3135-0.6287 0.4099-2.7217-0.2651-3.2593-1.0505-7.7717-11.344-20.389-16.845-30.287-25.514-15.135-13.256-31.798-24.196-48.411-35.234-35.494-23.583-70.752-47.603-107.18-69.672-23.859-14.454-47.975-28.546-71.894-42.941-3.1599-1.9019-7.1465-0.6832-8.0908 2.5177-1.1277 3.823-1.9268 7.7484-2.7529 11.654-5.5232 26.105-12.785 51.711-21.954 76.773-1.1438 3.127-2.3357 6.2478-3.2549 9.4436-3.3569 11.666-2.4873 14.606 7.5676 21.899 6.998 5.0759 14.306 9.7393 21.608 14.38 36.665 23.302 70.198 50.519 102.04 80.024 32.792 30.382 63.521 62.662 92.608 96.559 12.64 14.73 21.845 31.836 32.885 47.674 2.2424 3.2173 3.6223 7.1243 4.9058 10.882 0.572 1.675 0.5874 4.2344-0.3379 5.5593-1.3081 1.8733-3.4104 0.3577-4.9526-0.6213-5.6946-3.6155-10.114-8.5432-14.398-13.699-15.751-18.961-31.81-37.668-47.456-56.714-20.818-25.342-44.729-47.515-69.462-68.888-42.909-37.079-89.092-69.875-134.91-103.14-1.5879-1.1531-3.4465-1.9329-5.0991-2.8425-4.1528 2.2122-4.627 6.3867-6.0718 9.967-15.286 37.883-36.578 72.465-58.651 106.61-2.158 3.3381-4.8145 6.3813-7.4443 9.3821-12.295 14.028-25.065 27.661-36.923 42.047-27.454 33.306-61.009 59.238-97.049 82.402-24.111 15.498-48.3 30.657-74.661 42.285-41.129 18.142-83.643 30.598-128.38 35.887-21.898 2.5889-44.002 3.9597-65.728 2.9077-28.483-1.3799-57.296-2.2073-85.334-8.7356-4.166-0.9702-9.5051-0.0435-12.287-4.9863 3.8176-4.177 8.7058-2.219 13-2.1326 45.552 0.9182 90.282-5.7671 134.94-13.71 33.072-5.8821 64.318-16.924 94.618-31.052 32.64-15.219 64.414-32.05 94.3-52.19 33.932-22.866 63.268-50.456 88.085-83.285 14.01-18.534 26.18-38.504 42.442-55.447 6.3052-6.5696 10.312-15.491 14.758-23.671 13.673-25.158 27.24-50.379 40.448-75.784 4.7839-9.2019 3.5679-12.847-5.4658-17.919-23.802-13.363-47.195-27.454-72.509-38.038-49.78-20.812-99.287-42.279-149.01-63.22-33.759-14.217-67.745-27.895-101.52-42.066-6.4925-2.723-13.984-4.5805-17.472-11.968z"/>
	<path d="m430.81 2913.4c-5.0375 5.9045-10.062 4.9404-14.484 5.2747-51.335 3.8809-102.49 2.74-153.45-5.2542-24.378-3.8247-48.601-7.8408-71.801-16.848-32.539-12.633-62.953-28.512-88.978-52.313-9.5103-8.6975-17.364-18.643-23.82-29.356-10.592-17.578-21.269-35.257-28.873-54.449-5.0539-12.756-4.9694-26.209-2.8684-39.43 1.9809-12.464 4.7715-24.869 8.1941-37.022 8.8438-31.402 18.14-62.678 27.439-93.95 5.7013-19.174 12.883-37.776 21.407-55.916 8.777-18.678 16.738-37.74 25.082-56.622 25.151-56.914 57.581-109.54 93.261-160.38 55.252-78.737 117.41-151.66 183.57-221.32 23.91-25.176 50.594-47.32 76.423-70.392 41.252-36.847 83.021-73.068 128.95-104.17 25.366-17.177 50.557-34.618 75.606-52.253 7.597-5.3484 14.486-11.71 21.642-17.676 5.0795-4.2344 9.7336-9.1135 16.294-11.072 0.8921-0.2664 2.2889 0.8081 3.3057 1.4824 0.4092 0.271 0.6913 1.1997 0.5698 1.7217-0.441 1.8958-0.5897 4.1406-1.7258 5.5439-4.6028 5.6848-9.0457 11.643-14.433 16.521-14.799 13.4-29.269 27.123-42.578 41.989-20.491 22.888-44.679 41.82-66.823 62.938-25.072 23.91-50.285 47.645-74.391 72.545-25.481 26.32-51.274 52.338-76.844 78.573-22.809 23.403-43.572 48.588-64.404 73.737-51.484 62.152-97.447 128.38-143.93 194.22-5.3457 7.5718-10.111 15.732-13.932 24.17-14.326 31.631-31.056 61.984-49.586 91.243-13.362 21.098-21.594 44.193-30.138 67.25-10.176 27.463-18.207 55.652-29.045 82.94-10.101 25.433-15.584 52.168-14.844 79.876 0.2178 8.1621 2.479 15.752 5.0496 23.324 0.6366 1.875 1.6797 3.6228 2.627 5.3799 28.532 52.934 28.504 52.31 77.776 85.633 25.702 17.383 54.106 27.916 84.335 35.08 37.62 8.9148 76.045 13.503 113.57 22.728 5.7192 1.406 11.938 0.6824 17.902 1.2156 7.8657 0.7036 15.965 0.5056 23.956 5.0374z"/>
	<path d="m664.02 1300.7c-0.3629-16.61 0.0953-33.124 3.3035-49.653 4.1847-21.561 7.139-43.374 10.2-65.138 3.8268-27.212 11.626-53.435 20.79-79.123 14.588-40.894 32.946-80.203 58.258-115.66 15.068-21.11 31.757-41.099 48.294-61.116 19.081-23.094 38.878-45.595 58.212-68.482 16.818-19.909 35.46-37.956 55.779-54.19 7.224-5.7721 15.575-10.157 23.554-14.94 1.5907-0.9536 4.2253-1.1975 5.2104 1.0294 0.7018 1.5863 1.0677 4.2596 0.2046 5.4355-3.5188 4.7932-7.2179 9.5588-11.48 13.685-27.453 26.577-51.154 56.439-70.301 89.18-24.863 42.514-51.047 84.252-74.044 127.94-20.617 39.165-36.974 79.761-50.036 121.76-17.928 57.651-21.476 116.37-9.1899 175.68 18.819 90.85 58.063 172.64 111.73 247.72 28.426 39.771 63.573 73.502 99.785 106.06 17.325 15.579 34.57 31.241 53.251 45.29 19.819 14.905 40.669 27.86 63.688 37.1 29.653 11.903 58.316 26.214 88.659 36.434 0.6255 0.2104 1.4268 0.4331 1.7439 0.9146 0.6787 1.031 1.3103 2.1897 1.5618 3.3804 0.3206 1.5195-0.6572 2.4375-2.3667 2.4187-7.9688-0.0879-16.016 0.4663-23.893-0.4399-55.218-6.353-105.59-26.6-153.35-54.159-5.1766-2.9866-10.26-6.3009-15.767-8.5181-19.38-7.8029-36.418-19.573-52.938-31.886-26.711-19.909-51.7-41.985-75.575-65.202-13.803-13.423-27.21-27.308-38.522-43.099-9.301-12.983-19.524-25.305-29.291-37.956-2.4398-3.16-4.9586-6.3036-7.0061-9.7156-26.073-43.448-51.034-87.486-67.631-135.63-13.295-38.566-23.957-77.716-22.827-119.12z"/>
	<path d="m3291.4 2135.1c37.162-1.9731 72.874 6.2427 108.5 15.122 61.648 15.367 120.4 38.78 178.37 64.314 37.8 16.648 75.41 33.728 113.31 50.144 39.775 17.229 80.718 31.343 122.17 43.938 26.978 8.1965 54.607 11.906 82.835 11.214 6.6226-0.1626 13.27 0.3271 19.889 0.7732 0.9014 0.0605 2.1772 1.5076 2.415 2.5164 0.2368 1.0032-0.2725 2.8521-1.0522 3.3088-3.4136 1.9993-6.8716 4.3833-10.63 5.2429-9.7114 2.2209-19.466 4.6211-29.57 4.2871-9.9878-0.3301-19.976-0.6665-29.961-1.064-47.458-1.8896-93.835-10.102-139.79-22.026-41.358-10.73-81.567-24.641-121.74-38.966-50.789-18.112-100.33-39.917-152.77-53.178-40.029-10.12-80.153-20.418-121.34-24.32-39.929-3.782-79.777-2.4751-119.09 7.396-21.371 5.366-42.495 11.149-62.535 20.44-7.2732 3.3721-13.9 7.6018-20.332 12.496-18.621 14.169-35.312 30.458-52.327 46.386-9.7458 9.1228-18.213 19.458-25.227 30.881-9.1736 14.938-21.55 27.096-34.161 38.967-21.423 20.165-48.424 26.944-76.482 30.846-3.2837 0.4568-6.844-0.3564-9.9487 0.5459-15.267 4.4363-25.657-3.2415-34.606-13.847-7.2527-8.5947-16.446-15.726-20.76-26.635-1.8213-4.6052-0.3547-8.2886 4.2446-9.0984 9.8374-1.7324 19.73-3.1523 29.605-4.6699 36.521-5.613 69.116-19.274 95.112-46.427 2.7578-2.8804 5.3579-5.9165 7.95-8.9497 12.112-14.171 23.726-28.802 36.384-42.466 30.339-32.749 66.87-56.816 108.04-73.646 16.666-6.8127 34.668-9.3132 52.291-12.864 33.416-6.7326 67.251-9.3649 101.21-10.662z"/>
	<path d="m886.75 2668.9c3.764-4.0562 9.1925-4.6982 14.123-5.6365 26.81-5.1001 53.341-13.018 80.629-13.968 68.717-2.3923 137.24-0.9192 203.37 21.65 6.9138 2.3599 13.915 4.8132 20.317 8.2598 26.367 14.196 53.602 27.029 78.066 44.401 21.197 15.052 40.18 32.834 56.83 52.942 4.6711 5.6414 8.9241 11.68 14 16.925 12.827 13.255 21.559 28.794 26.056 46.522 5.2473 20.685 14.696 39.992 18.98 61.01 6.2515 30.671 5.6936 60.504-5.1213 90.391-8.9043 24.608-20.455 47.715-33.679 70.116-4.7703 8.0801-10.446 14.959-19.639 19.111-7.1392 3.2246-13.252 8.8411-19.593 13.692-31.993 24.471-68.099 35.336-108.28 33.705-20.056-0.8145-39.993-1.3767-58.272-11.273-4.8015-2.5991-9.0466-0.7656-12.343 3.2729-5.4788 6.7122-11.135 13.183-17.745 18.899-24.287 21.002-53.519 29.452-84.459 32.297-16.495 1.5166-33.268 0.2444-49.907-0.1272-8.1604-0.1821-16.351-2.4844-22.193-7.9456-10.208-9.5427-19.303-8.093-30.517-1.5842-32.608 18.925-67.974 21.63-104.47 15.39-13.494-2.3071-24.473-9.0693-35.167-17.631-28.396-22.732-46.687-52.616-62.105-84.607-3.9863-8.272-6.7305-17.388-6.6294-26.884 0.0198-1.8623 0.8994-4.0132 3.4459-4.1235 1.2683-0.0549 3.1077-0.24 3.7407 0.4741 4.8364 5.4548 10.136 10.677 13.991 16.792 14.872 23.589 36.204 40.527 57.712 57.344 2.0914 1.6355 4.5243 2.8274 6.6687 4.4023 27.98 20.554 58.276 24.324 90.738 12.627 3.1331-1.1287 6.3455-2.0481 9.4399-3.2703 6.3186-2.4961 7.2745-4.8394 4.0344-10.476-9.9514-17.312-19.701-34.752-30.164-51.752-4.7836-7.7729-6.6102-15.828-6.3622-24.633 0.0984-3.5007 4.5367-5.6809 7.3593-3.6511 7.645 5.4973 13.839 12.474 19.648 19.786 12.037 15.151 25.07 29.373 38.984 42.82 16.18 15.636 35.996 25.725 56.638 32.842 22.717 7.8323 46.2 4.0391 68.279-4.9375 17.309-7.0376 33.056-17.235 48.794-27.256 6.1951-3.9441 6.8384-6.5884 2.4656-13.203-15.082-22.815-29.02-46.274-41.003-70.868-3.2052-6.5786-6.1788-13.278-9.0129-20.025-0.7517-1.7893-0.5286-4.302 1.5004-5.1765 1.6309-0.7029 3.9071-0.7615 5.6312-0.2349 5.3099 1.6204 8.8219 5.9111 12.544 9.6443 19.231 19.291 41.056 36.06 56.955 58.608 2.7837 3.9475 7.2773 5.8142 11.682 7.3523 39.238 13.7 77.99 17.32 115.38-5.8499 3.3955-2.104 6.8291-4.2031 10.433-5.9055 39.113-18.473 55.269-51.834 60.174-92.526 2.908-24.126-1.0298-47.834-4.6526-71.521-1.5042-9.8352-3.7639-19.569-5.9907-29.278-6.8376-29.814-20.837-56.013-40.521-79.272-7.3169-8.646-14.797-17.154-22.102-25.81-18.495-21.917-42.189-36.682-68.056-47.84-28.736-12.395-57.985-23.639-88.657-30.543-7.7864-1.7527-15.609-3.6777-23.521-4.478-25.179-2.5476-50.295-5.7869-75.656-6.4365-14.629-0.3748-29.231-1.7983-43.846-2.7317-17.316-1.106-34.592-1.3018-51.882 0.8721-9.8995 1.2446-19.907 1.6619-29.876 2.3049-2.4572 0.1592-5.1725 0.3829-7.2022-3.0002z"/>
	<path d="m2051.4 1739.1c3.179 2.6105 2.1946 6.0841 1.355 8.95-4.6748 15.957-8.5399 32.283-14.816 47.608-8.6372 21.09-24.062 36.373-45.634 44.898-4.3333 1.7126-8.4902 3.8723-12.821 5.5925-13.774 5.4717-27.564 7.6382-42.83 6.1179-23.92-2.3818-44.826-10.205-64.841-23.367-31.398-20.648-59.638-44.706-84.908-72.343-23.836-26.07-46.923-52.78-67.038-81.91-7.5872-10.987-15.884-21.416-25.437-30.768-15.804-15.473-33.856-22.23-56.405-17.02-29.835 6.8943-59.958 12.575-90.038 18.36-17.057 3.2806-34.452 3.5984-51.763 3.7617-10.644 0.1006-21.179-1.3691-31.541-4.4401-12.122-3.5925-24.521-6.2448-36.769-9.4226-3.8613-1.0018-7.8367-1.942-11.4-3.6577-38.284-18.435-72.043-42.788-98.078-76.792-6.6538-8.6903-8.282-19.824-9.4858-30.238-3.261-28.205-1.2883-55.919 12.477-81.692 1.0383-1.9445 2.3005-3.1858 4.4106-3.2925 2.6697-0.1353 3.1992 2.0934 3.3643 3.9489 1.0618 11.93 2.9949 23.9 2.6873 35.807-0.5632 21.786 8.8596 37.93 24.246 52.401 25.998 24.452 55.803 43.58 87.227 59.335 47.828 23.98 97.992 28.586 149.06 8.7108 16.744-6.5166 33.636-12.581 51.105-17.128 18.446-4.8016 36.7-5.6478 55.384-2.0215 9.9861 1.9381 11.139 1.0634 15.294-8.1161 6.3359-13.997 11.085-28.552 14.143-43.612 1.9958-9.8337 0.4246-18.476-8.7378-24.574-9.7222-6.4709-14.045-17.584-21.561-26.007-4.0574-4.5468-5.0403-10.855-5.374-16.899-1.0801-19.572-5.1709-38.053-16.136-54.873-5.4568-8.3704-6.9956-18.632-9.3889-28.329-1.8037-7.3096 2.7314-15.144 11.102-15.313 11.21-0.2263 22.028-4.4741 33.539-3.2473 5.156 0.5494 8.8096 2.1349 11.476 6.4631 5.5681 9.0394 12.731 17.68 6.666 29.348-2.4714 25.578-1.3386 50.236 13.228 73.017 15.174 23.731 35.021 33.075 62.592 27.814 22.212-4.2378 40.817-15.659 58.757-28.597 4.9231-3.5504 4.937-9.1877 6.5601-14.126 1.4009-4.2607 3.824-6.5701 8.4978-6.9648 6.1221-0.5171 11.893-0.5029 17.101 3.5057 2.6211 2.0175 5.7629 3.342 8.5359 5.1812 13.76 9.1256 14.684 12.776 7.8972 27.906-1.7795 3.9669-4.6294 6.7015-8.4746 7.8761-5.6895 1.738-11.684 4.0917-17.414 3.771-15.46-0.8647-29.008 4.2491-41.511 12.099-16.736 10.509-34.653 16.649-54.263 18.249-2.6306 0.2145-5.2051 1.5259-7.8123 1.5488-10.148 0.0892-15.633 5.131-18.217 14.838-3.823 14.358-13.052 26.141-19.812 39.106-2.4602 4.718-5.1687 9.3137-7.4587 14.111-1.4883 3.1177-1.384 6.3597 0.5256 9.5127 3.792 6.2617 6.7751 13.125 11.232 18.852 16 20.558 29.158 42.981 43.266 64.773 10.53 16.265 21.824 31.872 35.305 45.837 17.119 17.733 34.136 35.566 51.311 53.244 20.551 21.153 46.34 30.488 75.129 33.038 12.997 1.1511 25.058-2.7827 37.081-6.6609 2.9512-0.9519 5.4263-3.5996 7.918-5.707 4.5647-3.8606 8.4265-8.9592 13.572-11.641 10.258-5.3462 15.516-14.296 20.201-23.965 4.062-8.3835 7.8633-16.893 11.904-25.287 1.3858-2.8813 2.0965-6.406 5.8144-7.571z"/>
	<path d="m2047.5 3021.5c-5.4688 2.4504-6.6409 8.0994-8.8831 12.681-14.152 28.918-32.143 55.027-54.839 77.958-13.295 13.433-13.173 16.908 1.552 28.054 16.535 12.516 34.528 22.438 54.985 27.361 16.289 3.9199 32.834 5.5293 49.481 5.2805 17.557-0.2622 34.157-4.3484 48.981-14.55 20.272-13.95 40.555-27.831 58.861-44.4 7.3899-6.6885 15.263-12.847 22.998-19.148 2.5383-2.0684 5.1765-4.2622 8.906-3.1782l-0.5962-0.3872c0.0874 0.6609 0.4797 1.4927 0.2185 1.9578-9.6741 17.232-15.64 36.494-28.335 52.064-4.6392 5.6902-9.2876 11.317-12.086 18.24-1.2534 3.1003-0.124 5.5679 2.3569 6.6372 10.396 4.4819 20.888 8.7683 31.502 12.701 3.0029 1.1125 6.6689 1.5259 9.8115 0.9856 15.057-2.5896 29.572-5.4939 42.063-16.277 20.65-17.826 42.827-33.846 60.641-54.863 4.1277-4.8699 9.9253-8.3245 16.735-13.884-0.7542 9.0454-3.1685 15.109-7.0225 20.339-12.291 16.681-21.438 35.261-32.405 52.733-8.0547 12.832-29.526 27.697-43.998 32.504-15.534 5.1597-31.29 5.2375-47.234 4.7957-5.4026-0.1501-10.381-1.248-14.995-4.5688-8.0977-5.8267-16.935-10.669-24.76-16.818-6.4561-5.0723-12.908-6.4172-20.46-3.9431-5.6978 1.866-11.436 3.6191-17.084 5.6243-30.754 10.915-62.124 13.937-94.335 7.9878-27.588-5.095-51.038-18.653-73.228-34.965-8.5872-6.3127-17.251-12.521-25.864-18.798-5.3884-3.9265-10.94-4.1714-16.908-1.2549-7.7773 3.8018-15.778 7.1543-23.491 11.077-6.8005 3.4583-14.042 4.9583-21.331 3.8147-26.994-4.2344-53.947-8.8381-78.932-20.776-2.397-1.1458-4.9016-2.2102-7.0237-3.7661-24.788-18.172-48.648-37.315-65.342-63.786-1.7766-2.8174-3.0745-6.1531-5.4312-8.3518-10.89-10.16-13.778-24.054-17.753-37.366-1.6948-5.6763-2.0215-11.656-4.4741-17.295-3.0532-7.02-1.5498-14.681 0.5-21.61 2.707-9.1511 2.6409-18.178 2.697-27.552 0.1089-18.238 5.5625-35.626 13.62-51.763 20.025-40.105 43.079-77.972 77.773-107.82 22.346-19.227 46.15-36.091 71.145-51.479 1.7-1.0466 3.3452-2.4324 5.21-2.9219 20.74-5.4446 39.724-14.851 58.366-25.172 3.3511-1.855 7.5796-2.1199 11.398-3.1375 7.7139-2.0559 15.946-3.0244 23.041-6.3877 24.49-11.609 51.042-14.98 77.068-20.356 51.405-10.621 103.34-9.543 155.29-5.613 14.581 1.103 29.074 3.5686 43.548 5.7922 4.5461 0.6982 8.9504 2.5122 13.303 4.1279 0.9763 0.3621 1.7214 1.9441 2.1277 3.1187 0.7983 2.3066-0.7358 3.9121-2.4788 4.8008-7.1567 3.6484-14.666 6.4404-22.733 7.0508-21.26 1.6096-42.516 3.3889-63.806 4.4385-27.273 1.345-54.612 1.4829-81.86 3.1536-37.933 2.3257-75.617 6.9175-112.57 16.269-4.512 1.1423-9.3352 1.7485-13.413 3.7986-27.304 13.728-55.751 25.122-80.953 43.07-24.575 17.502-46.566 37.676-67.653 59.04-17.07 17.294-29.993 37.403-39.859 59.437-3.2329 7.2205-4.6724 15.241-6.9644 22.886-11.591 38.661-7.262 76.486 6.658 113.56 5.9402 15.819 17.109 28.513 28.336 40.792 11.76 12.862 26.18 22.61 40.77 32.003 5.0984 3.2825 10.756 5.1711 16.649 6.5552 11.764 2.7622 23.681 3.4258 35.72 3.574 8.9692 0.1104 17.079-1.1997 24.118-7.4048 3.4561-3.0469 7.6216-5.4065 11.73-7.5779 32.703-17.282 61.321-39.971 87.665-65.727 4.2837-4.188 8.8809-8.0574 13.365-12.038 2.8655-2.5439 6.1108-2.031 9.387-1.0151l0.525-0.3024z"/>
	<path d="m1053.1 602.95c-1.52 25.938-2.8955 51.887-4.6536 77.809-0.4891 7.2136-0.7135 14.722-5.5869 20.881-1.3284 1.6791-5.6426 1.7722-7.0859 0.2733-3.4312-3.5632-4.49-8.2342-5.4388-12.69-3.3269-15.623-7.3085-31.218-9.0642-47.043-6.2574-56.403-6.6982-112.77-2.2771-169.54 3.5568-45.666 18.932-86.862 36.875-127.85 7.7469-17.695 15.178-35.529 22.679-53.33 20.298-48.172 46.004-93.152 79.261-133.61 33.471-40.717 70.531-77.988 109.64-113.26 0.9895-0.8924 2.0103-1.7502 2.9961-2.6464 6.1489-5.5892 12.701-6.6354 20.039-2.1979 9.1104 5.5093 18.649 10.285 26.772 17.377 21.077 18.403 42.174 36.778 61.744 56.813 11.699 11.977 21.735 25.172 29.744 39.943 18.772 34.621 34.901 70.483 48.558 107.35 10.438 28.177 16.039 57.686 19.751 87.545 2.3826 19.161 5.2126 38.288 8.6096 57.294 3.071 17.18 10.318 33.021 17.968 48.594 13.215 26.903 26.589 53.728 39.889 80.589 6.5581 13.244 16.179 24.392 24.783 36.235 7.439 10.238 14.979 20.403 22.39 30.662 1.5891 2.1995 2.5183 4.7756 1.1069 7.442-1.8411 3.4775-5.2488 4.1035-8.5664 3.4775-21.805-4.1137-40.428-14.212-53.12-32.557-17.794-25.719-35.809-51.439-47.997-80.522-21.678-51.726-40.858-104.24-48.203-160.27-7.0298-53.622-26.334-102.98-51.226-150.54-13.688-26.15-29.309-50.783-51.148-70.982-8.8037-8.1425-17.598-16.309-26.696-24.115-12.241-10.503-16.343-11.224-29.99-1.7921-9.7385 6.7307-18.597 14.961-26.98 23.387-34.498 34.676-61.814 74.995-88.929 115.37-12.988 19.339-24.54 39.642-36.789 59.48-13.362 21.639-24.105 44.477-31.656 68.785-16.431 52.896-31.146 106.23-35.286 161.73-1.6819 22.552-1.2124 45.264-1.6815 67.905-0.0966 4.6599-0.0139 9.3235-0.0139 13.986-0.1405 1e-3 -0.2807 2e-3 -0.4211 0.0029z"/>
	<path d="m2558.5 2244c3.9619-3.5972 7.3411-0.3879 10.611 1.1628 24.149 11.452 46.703 25.716 68.812 40.566 42.038 28.238 84.578 55.668 127.67 82.262 27.225 16.802 53.467 35.069 79.126 54.178 39.525 29.435 79.394 58.419 118.52 88.374 24.296 18.602 48.414 37.47 69.826 59.634 31.596 32.705 53.79 70.941 69.557 113.22 2.0852 5.5906 3.2512 11.524 4.8389 17.3 5.2273 19.017 1.7515 35.725-8.4746 53.171-32.306 55.116-76.13 99.24-127.05 136.53-37.841 27.715-79.675 48.335-124.86 61.549-19.804 5.7917-39.791 10.992-59.8 16.042-19.496 4.9207-39.591 4.908-59.506 6.2134-0.8225 0.054-2.2861-1.3684-2.4846-2.3071-0.2244-1.063 0.3018-3.0676 1.0859-3.4429 13.203-6.3245 26.16-13.361 39.832-18.473 50.821-19.002 98.572-43.547 142.97-74.887 25.638-18.1 51.086-36.223 72.206-59.691 24.145-26.829 41.365-57.043 45.776-93.543 2.7195-22.501-0.593-43.853-12.133-63.587-16.503-28.221-34.031-55.946-55.504-80.529-19.215-21.997-39.214-43.496-61.927-62.222-24.15-19.912-47.863-40.358-71.65-60.708-30.911-26.444-63.732-50.365-96.754-74.05-14.059-10.084-27.581-20.912-41.515-31.174-22.521-16.585-44.945-33.318-67.849-49.362-21.956-15.38-41.142-33.762-59.88-52.715-0.8121-0.8215-0.9637-2.2956-1.4408-3.5109z"/>
	<path d="m2779.9 696.32c-47.263 2.2542-94.606 3.2988-141.36 11.422-58.473 10.16-116.53 22.094-172.22 43.341-25.594 9.7635-49.5 23.076-73.74 35.61-23.662 12.235-46.728 25.621-70.118 38.388-5.2402 2.8606-10.65 5.4694-16.178 7.7067-1.4807 0.5994-3.9805-0.13-5.4993-1.0746-2.6821-1.6677-2.2705-4.5331-1.4453-7.1488 1.6597-5.2603 5.1484-9.3508 9.1021-12.943 9.3594-8.5028 18.359-17.534 28.468-25.057 47.717-35.512 98.054-66.588 153.26-89.366 31.052-12.812 63.693-19.277 96.46-25.248 28.87-5.2604 58.096-7.5461 87.348-9.8455 35.907-2.8224 71.821-4.504 107.81-4.0556 32.642 0.4066 65.242 1.5909 97.527 7.4097 10.013 1.8047 19.289 5.2881 28.323 9.4484 16.065 7.3987 22.551 21.558 20.415 39.197-6.5728 54.267-16.241 108.01-27.376 161.47-10.24 49.165-26.907 96.051-52.177 139.75-26.558 45.924-59.211 86.909-97.841 123.17-33.687 31.62-70.791 58.499-111.59 80.301-10.769 5.7551-22.512 8.0333-33.974 11.43-7.0696 2.0955-13.024-1.5579-19.243-3.6144-4.3186-1.4282-5.2776-5.9031-2.4585-9.5281 4.5781-5.8872 10.639-10.062 16.735-14.099 23.321-15.447 46.737-30.751 70.124-46.099 3.8943-2.5555 8.1248-4.697 11.679-7.655 16.891-14.056 33.902-27.99 50.309-42.599 27.71-24.673 48.515-54.706 65.494-87.455 16.894-32.586 29.847-66.863 43.145-101.02 8.9775-23.057 15.706-46.611 21.227-70.69 5.8025-25.304 13.209-50.236 19.514-75.43 3.0679-12.261 5.2449-24.746 7.7874-37.138 4.2441-20.686-6.4514-36.016-27.611-37.277-21.919-1.3064-43.937-0.9573-65.913-1.2939-5.3278-0.0817-10.657-0.0122-15.986-0.0122z"/>
	<path d="m1817.7 502.99c-1.5032 35.034-2.5137 71.683-7.7776 108.04-0.3804 2.6266-0.6809 5.326-0.5 7.9559 0.1934 2.8193 1.8662 4.958 4.7505 5.626 1.9207 0.4448 3.9456 0.7344 5.9077 0.6609 42.43-1.5901 83.626 5.7813 124.33 16.911 45.118 12.337 88.987 27.697 130 50.708 22.222 12.468 42.894 26.999 61.826 43.843 17.088 15.204 17.456 11.357 25.206-4.1038 19.471-38.84 42.593-75.406 68.359-110.33 19.401-26.294 40.349-51.349 61.756-76.016 2.1243-2.4476 4.9832-4.3315 7.7354-6.1156 0.835-0.5415 2.7664-0.2827 3.6338 0.3636 0.8918 0.6645 1.5303 2.2505 1.53 3.4331-0.0015 6.4149-4.0479 11.14-7.304 16.087-17.587 26.724-35.062 53.527-53.074 79.964-8.2747 12.146-15.967 24.574-22.827 37.538-14.334 27.087-28.62 54.2-42.912 81.31-0.9316 1.767-1.8271 3.5608-2.6082 5.3979-3.2209 7.5793-2.887 10.248 3.8635 15.307 14.149 10.603 23.754 25.042 33.886 39.053 1.5259 2.1096 2.7314 4.6464 3.345 7.1656 0.6272 2.5758 0.3145 5.5835-2.239 7.1407-1.5122 0.9222-3.8191 1.4937-5.4727 1.0692-7.925-2.0343-14.295-6.6448-20.251-12.234-7.3181-6.8672-15.339-12.781-25.741-14.52-4.6177-0.7717-7.9001 0.3798-9.6782 4.6752-6.6255 16.006-13.182 32.041-19.693 48.094-16.026 39.51-31.978 79.05-48.066 118.53-1.7397 4.2697-4.0576 8.3265-6.4114 12.302-0.4302 0.7264-2.4736 1.0334-3.5151 0.7087-1.0002-0.3118-2.2627-1.6302-2.3704-2.6196-0.3579-3.2854-0.6406-6.6689-0.2502-9.9307 1.8208-15.205 3.3999-30.459 7.5442-45.284 12.214-43.696 26.654-86.531 46.101-127.68 9.1382-19.334 14.339-18.765-9.905-37.238-39.087-29.784-83.23-49.996-128.11-68.973-30.732-12.996-62.376-23.428-93.927-34.132-13.926-4.7244-28.2-7.804-42.92-9.1022-12.589-1.1104-25.076-3.335-37.652-4.6467-7.7522-0.8086-11.016 1.6342-12.896 9.2708-2.3879 9.6989-4.3179 19.51-6.4717 29.267-5.4851 24.848-16.455 47.82-24.565 71.77-9.863 29.128-22.502 57.005-37.969 83.575-2.6438 4.5421-6.0496 8.6639-9.3599 12.773-0.5908 0.7338-2.6616 0.9393-3.6477 0.496-0.905-0.4069-1.7849-2.0167-1.7896-3.1003-0.0435-10.144 3.1069-19.684 6.0176-29.224 10.31-33.789 21.896-67.145 34.949-99.97 8.9009-22.384 15.36-45.436 19.919-69.038 1.4951-7.742-0.2971-10.076-7.762-10.274-11.99-0.3167-23.992-0.2161-35.989-0.2728-3.3228-0.0157-6.6592 0.228-9.9646-0.0027-2.7114-0.1892-5.4792-1.1968-6.1519-4.1485-0.9619-4.2203 2.3628-6.1654 5.4731-6.7884 11.741-2.3519 23.521-4.6825 35.393-6.1718 23.002-2.8857 21.624-2.1447 24.013-23.457 5.7915-51.657 11.03-103.38 16.786-155.04 1.4739-13.23 3.864-26.37 6.2317-39.479 0.5586-3.0928 2.4277-6.1024 4.2566-8.7632 1.4402-2.0955 4.0139-1.0384 4.9631 0.5292 3.2461 5.3605 2.9443 11.54 2.8967 17.494-0.1924 23.996-0.5889 47.99-0.9001 71.985-0.0344 2.6652-0.0046 5.3311-0.0046 9.5923z"/>
	<path d="m1556.1 895.07c27.421-1.943 52.982 4.2017 76.699 17.918 12.676 7.3306 25.181 14.965 37.621 22.69 19.022 11.813 26.981 30.675 31.125 51.36 2.7739 13.845 1.449 28.013-1.5886 41.705-4.7561 21.436-10.513 42.647-15.65 64.001-3.2886 13.668-8.3042 26.591-15.26 38.804-0.9709 1.7046-1.5391 3.7312-3.7324 3.8336-2.4714 0.1154-3.2207-2.0267-3.7261-3.9387-2.5503-9.6414-4.6199-19.43-7.6252-28.925-2.6643-8.417-5.6428-9.9788-13.329-5.9695-12.912 6.735-26.396 8.625-40.636 7.8065-18.156-1.0433-31.535-9.7601-40.654-25.132-8.2634-13.928-11.809-29.714-15.614-45.133-2.2188-8.9894 0.4399-18.641 5.9482-26.623 2.9951-4.3407 6.6321-8.3436 10.492-11.951 3.3777-3.1573 7.4282-5.6105 11.255-8.2687 20.353-14.137 41.96-23.082 67.425-16.436 1.7576 0.4585 3.96-0.0189 5.7227-0.6809 0.863-0.3242 1.7515-2.1234 1.6587-3.1687-0.3076-3.4683-2.3901-6.1094-4.8838-8.4143-12.355-11.42-25.798-20.938-42.315-25.593-14.102-3.9745-28.077-8.2673-42.701-10.149-16.851-2.1686-33.264-0.6824-49.243 4.8942-23.416 8.1715-45.795 18.309-64.1 35.688-2.8894 2.7433-5.8059 5.5046-8.3416 8.5632-4.1741 5.035-4.9927 9.8489-1.0815 16.201 19.886 32.295 39.234 64.921 58.784 97.423 3.0735 5.1095 6.791 9.8931 7.27 16.195 0.2454 3.23-3.7612 6.3152-6.7959 5.0306-1.2168-0.515-2.4846-0.9794-3.584-1.691-34.994-22.652-62.92-51.156-76.476-91.738-4.6433-13.901-9.498-27.706-12.231-42.161-2.0642-10.916 0.1182-19.053 11.09-24.76 21.242-11.05 41.673-23.657 62.903-34.731 16.686-8.7037 34.968-12.818 53.675-14.65 9.277-0.9082 18.6-1.347 27.902-1.9984z"/>
	<path d="m2110.8 1334.2c-10.541-0.2976-20.21-2.4619-28.811-6.808-14.23-7.1908-28.197-15.078-40.246-25.811-5.0132-4.4658-9.1526-9.5449-12.587-15.374-4.8247-8.1897-4.8958-15.794-0.7554-24.535 15.711-33.167 37.793-61.752 67.126-83.067 22.519-16.363 48.806-26.914 77.849-27.074 8.0029-0.0442 16.044-0.4907 23.835 1.6969 14.05 3.9448 27.802 7.7633 38.24 19.7 7.8037 8.9246 18.229 15.5 26.968 23.675 18.368 17.182 31.188 37.964 38.184 62.158 1.4619 5.0555 2.5188 10.455 2.4675 15.683-0.2356 23.96-0.8716 47.916-1.4995 71.87-0.1724 6.5688 0.4583 15.343-6.5876 17.296-8.9619 2.4841-12.014-7.001-15.091-13.18-4.125-8.2854-6.6294-17.367-10.024-26.031-1.9346-4.9381-4.7419-6.0868-9.2922-3.4673-12.718 7.3215-25.404 14.737-39.742 18.453-19.203 4.9764-38.168 5.3754-56.165-4.6088-11.204-6.2155-17.473-15.752-19.764-28.446-4.6169-25.58-0.4109-48.526 16.302-69.37 7.8901-9.8407 14.151-21.001 24.702-28.415 8.7305-6.1345 17.694-11.891 28.802-13.033 3.2551-0.3348 6.9893-1.4618 7.9792-5.0809 1.2927-4.7267-2.9021-6.8436-5.7314-9.4611-0.4839-0.4475-1.042-0.8584-1.6353-1.1376-21.478-10.106-43.32-17.009-67.393-9.547-17.564 5.4442-32.648 14.028-44.93 28.232-15.748 18.214-27.947 38.915-42.588 57.874-4.2566 5.5117-2.821 11.1 1.0159 16.548 14.176 20.129 27.523 40.921 46.898 56.762 0.9344 0.7639 1.2733 2.2558 2.4727 4.5002z"/>
	<path d="m1560 2825.6c-0.0417-1.8667-0.8323-4.8569 5e-4 -5.4119 4.4087-2.9385 9.1628-5.3887 13.911-7.7815 27.363-13.792 54.738-27.562 82.15-41.257 19.664-9.8232 39.44-19.421 59.072-29.305 11.294-5.6858 22.579-11.431 33.558-17.693 26.043-14.852 51.882-30.061 77.839-45.063 28.896-16.7 56.198-35.732 82.613-56.088 22.693-17.488 45.32-35.069 68.266-52.221 26.798-20.032 49.62-44.3 73.62-67.37 41.282-39.684 67.607-88.704 89.807-140.45 3.6748-8.5662 6.7136-17.403 10.257-26.029 7.6094-18.526 14.039-37.363 17.141-57.262 1.1235-7.2087 3.1768-14.29 5.126-21.34 0.446-1.6138 1.9905-3.7061 3.4236-4.0845 2.2595-0.5969 3.3525 1.74 3.5159 3.6917 3.9333 47.038 1.7766 93.085-19.132 136.82-16.194 33.875-36.868 64.772-59.104 94.801-23.501 31.736-51.091 59.679-79.815 86.581-21.451 20.09-44.936 37.703-68.759 54.771-41.733 29.901-85.424 56.757-130.47 81.389-4.6741 2.5557-9.3809 5.0979-13.821 8.0276-53.297 35.172-111.78 58.9-172.12 78.719-25.856 8.4919-52.644 14.351-77.19 26.651l0.1154-0.0962z"/>
	<path d="m1595.5 2055.5c-30.69-0.1958-60.933-4.9712-91.226-9.099-5.2061-0.7092-10.177-3.0505-15.302-4.4775-7.6694-2.1365-15.273-5.1826-23.092-5.9639-15.726-1.5713-29.69-7.5635-42.775-15.575-21.559-13.2-42.94-26.731-63.888-40.876-23.241-15.693-44.668-33.611-61.367-56.479-10.866-14.879-16.81-31.609-17.495-50.091-0.0461-1.2485 0.4451-3.4834 1.0325-3.6064 1.7185-0.3596 4.2502-0.5947 5.3372 0.3787 9.4014 8.4211 19.028 16.673 27.659 25.85 10.188 10.832 21.627 19.344 35.022 25.932 33.439 16.446 66.512 33.636 99.727 50.536 3.5574 1.8098 6.907 4.219 10.65 5.4434 39.916 13.054 80.118 24.679 122.62 25.54 33.334 0.675 66.511-1.8271 99.723-3.946 21.213-1.3538 42.644-0.2217 63.416-6.2388 2.4741-0.717 5.3926-0.7622 7.897-0.197 1.5869 0.3582 3.531 2.2217 3.9558 3.7805 0.4331 1.5908-0.376 3.9309-1.4126 5.3984-1.0798 1.5286-2.9639 2.6309-4.6965 3.5359-22.381 11.69-44.103 24.813-69.028 30.898-6.4302 1.5698-12.933 3.533-18.833 6.4619-21.502 10.673-44.302 13.73-67.92 12.793z"/>
	<path d="m2539.5 2996.6c1.0959-16.649 0.9207-33.247-1.1707-49.843-3.5417-28.106-13.143-54.091-25.518-79.338-3.5298-7.2014-10.117-14.402-4.3948-23.563 8.7764 1.3657 13.03 8.5588 17.635 14.646 18.482 24.431 35.606 49.595 48.507 77.73 8.3242 18.152 18.121 35.574 22.765 55.169 6.1843 26.098 9.8567 52.313 2.8186 78.935-2.0405 7.718-4.0654 15.51-5.1418 23.398-2.0605 15.102-9.2888 27.608-18.339 39.324-2.8462 3.6833-6.2175 6.9604-9.0659 10.642-36.092 46.644-49.363 46.873-110.96 63.226-22.515 0.3809-45.14 3.5078-67.168-4.6855-9.9453-3.699-20.434-5.9292-30.652-8.9082-2.5862-0.7537-5.3596-2.1799-5.1218-5.1292 0.3184-3.948 3.8516-5.457 7.2002-5.4265 3.9121 0.0354 7.7991 1.2693 11.726 1.7495 4.5852 0.5608 9.3965 1.9268 13.773 1.1191 32.996-6.0898 65.241-14.015 89.594-39.798 6.3879-6.7634 13.545-12.794 20.231-19.283 26.537-25.754 40.309-57.505 43.134-94.034 0.921-11.909 0.1451-23.948 0.1451-35.928z"/>
	<path d="m707.15 3148.4c-13.717 10.225-25.096 14.796-39.377 15.394-17.457 0.7314-34.503-1.8472-51.118-7.165-10.259-3.2839-19.372-8.6084-27.533-15.702-16.14-14.029-30.709-29.546-43.083-46.938-15.982-22.463-22.313-48.354-22.315-75.357-0.0016-24.506 0.0443-49.146 6.2422-73.33 2.8241-11.019 6.1072-21.676 10.795-32.003 16.266-35.831 34.954-70.195 60.214-100.63 2.5057-3.0198 5.0449-6.0112 7.4834-8.9143 4.9105 2.1362 1.687 4.3782 0.8671 6.0708-8.6923 17.941-18.135 35.544-26.172 53.77-13.239 30.022-22.163 61.223-22.376 94.436-0.0769 12.021 0.4718 23.855 3.891 35.541 3.1709 10.837 5.8646 21.851 8.0717 32.926 4.8823 24.499 17.847 44.243 35.857 60.744 12.735 11.669 26.342 22.397 39.704 33.368 13.114 10.768 28.698 16.55 44.638 21.564 4.9385 1.5529 10.762 1.2016 14.208 6.2287z"/>
	<path d="m1497.8 1326.4c-5.7249 1.4258-10.418-1.39-15.042-3.9308-18.038-9.9105-36.121-19.752-53.951-30.028-29.534-17.022-61.253-29.191-92.636-42.072-81.447-33.429-165.66-58.38-250.91-79.764-64.768-16.246-130.92-23.525-197.52-27.26-9.1827-0.5151-19.859 3.2496-27.326-6.0072 7.3945-7.1257 17.201-6.2766 26.192-7.4617 43.88-5.7839 87.73-3.7115 131.38 2.2913 36.253 4.9858 72.338 11.189 108.53 16.633 23.877 3.5914 46.35 12.093 69.019 19.708 50.488 16.958 99.906 36.811 148.94 57.538 28.344 11.981 53.58 29.581 78.659 47.151 18.502 12.962 36.278 26.96 55.786 38.469 6.9124 4.0781 13.18 8.9849 18.346 15.196l0.5289-0.4629z"/>
	<path d="m1367.5 2170.1c6.4282 17.675 9.1279 36.112 12.146 54.36 7.6855 46.46 5.9775 93.037-1.3882 139.3-4.9302 30.962-13.368 61.176-27.66 89.367-8.4329 16.634-16.958 33.239-26.074 49.502-11.501 20.517-27.149 37.798-44.247 53.782-1.2937 1.2092-4.0645 2.4614-5.2161 1.8721-2.6438-1.3525-2.2891-4.4998-1.4629-6.918 2.7976-8.1858 5.6565-16.363 8.866-24.394 14.584-36.495 29.228-72.937 39.986-110.84 12.214-43.03 20.148-86.854 26.963-131 5.1914-33.625 7.4294-67.505 11.179-101.25 0.5403-4.8646-0.7637-11.048 6.9077-13.777z"/>
	<path d="m1448.3 1236.4c-1.1482 1.0792-2.1382 2.6597-2.8147 2.535-3.2075-0.5905-6.5977-1.1317-9.4409-2.6143-35.415-18.467-70.425-37.683-104.03-59.304-18.464-11.881-36.117-25.03-54.665-36.772-33.946-21.49-63.797-47.777-92.662-75.521-25.487-24.497-49.176-50.554-71.858-77.575-12.001-14.298-21.528-30.358-31.407-46.154-6.4766-10.356-7.765-22.502-12.194-33.551-0.3416-0.8521 0.5331-2.9089 1.3763-3.3254 0.9286-0.459 2.9426-0.1151 3.6713 0.6514 3.6421 3.8314 7.1532 7.8073 10.466 11.929 30.037 37.377 61.66 73.346 95.12 107.7 35.882 36.842 75.422 69.382 117.51 98.77 26.786 18.704 52.204 39.107 77.542 59.631 14.013 11.351 28.692 21.563 44.231 30.677 9.1599 5.3719 18.59 10.486 26.255 18.047 1.3218 1.3039 1.9778 3.2828 2.8987 4.8762z"/>
	<path d="m1459 1363c-0.9927 0.7299-2.1165 2.209-2.959 2.0634-5.2095-0.9005-10.432-1.8992-15.51-3.3556-31.362-8.9946-62.644-18.208-94.8-24.189-11.848-2.2036-23.641-3.5886-35.65-4.0588-76.155-2.9811-151.77 3.1805-227 14.197-44.823 6.5641-89.117 16.059-132.17 30.635-5.0076 1.6954-10.236 2.7798-15.421 3.8634-0.73 0.1527-1.9215-1.223-2.6495-2.099-0.266-0.3199-0.0327-1.5487 0.361-1.8422 2.6324-1.9628 5.147-4.3014 8.1055-5.576 60.16-25.92 121.62-46.995 187.38-53.912 28.5-2.9982 57.103-4.2871 85.581-7.2512 2.6392-0.2747 5.3308-0.3031 7.9829-0.1621 53.208 2.8273 106.39 5.8408 158.68 17.185 18.954 4.1118 37.16 10.504 54.995 17.951 7.948 3.3186 15.963 6.7635 22.31 12.982 1.1348 1.1118 1.5499 2.1362 0.762 3.5692z"/>
	<path d="m1436.3 594.15c-3.5808 39.346-21.144 71.494-68.031 85.518-6.9639 2.0828-14.29 3.0768-21.513 4.1472-24.987 3.7026-50.025 7.0657-75 10.844-25.069 3.7928-49.403 10.361-72.864 20.104-4.8723 2.0231-9.981 3.5859-15.113 4.8016-1.3889 0.329-4.3091-1.0834-4.6477-2.2449-0.4197-1.4372 0.6157-4.1015 1.9023-5.0867 4.2046-3.2192 8.6338-6.2418 13.294-8.7496 11.119-5.9831 22.41-11.645 33.648-17.407 19.892-10.199 41.104-14.6 63.372-15.481 24.654-0.9761 48.838-4.1747 71.483-15.527 17.256-8.651 30.999-20.653 40.316-37.318 6.2151-11.118 14.428-20.666 21.724-30.933 1.6897-2.3781 4.28-3.723 6.8462-2.9852 3.5642 1.0245 4.8103 4.2436 4.5833 10.318z"/>
	<path d="m2088.5 1672.9c1.9102 0 3.991-0.5442 5.6245 0.0807 28.607 10.945 56.908 22.468 82.845 39.173 28.225 18.179 48.824 42.92 63.947 72.482 10.626 20.771 19.392 42.346 26.382 64.627 5.6309 17.949 8.093 36.318 7.314 55.099-0.0417 1.0042-1.3125 2.3674-2.3279 2.7756-0.6704 0.2693-2.4905-0.6375-2.8059-1.4177-5.9805-14.802-12.408-29.461-17.549-44.557-9.5273-27.978-23.73-53.5-39.853-77.996-19.685-29.907-45.739-53.519-75.264-73.412-13.241-8.9216-26.841-17.31-40.118-26.18-3.6137-2.4146-8.4899-4.2179-8.1962-10.675z"/>
	<path d="m2272.4 1510.5c-37.372 2.0016-74.456-1.7576-111.53-5.6052-3.9685-0.4117-8.1511-0.3898-11.826-1.7079-12.811-4.5951-26.055-5.0588-39.402-5.1038-2.6626-0.0089-5.3364-0.0289-7.9841-0.2731-5.1804-0.4777-8.2363-3.1396-8.0784-6.9071 0.2092-5.0004 4.0247-7.0315 7.8865-7.4568 7.9094-0.8713 15.937-1.2954 23.886-1.0187 9.302 0.3236 18.668 1.0173 27.836 2.5579 24.402 4.1005 48.969 5.0306 73.636 5.3726 14.623 0.2026 29.254 0.153 43.857 2.2097 9.1646 1.2909 18.668 1.3783 27.914 0.6578 25.29-1.9705 50.585-1.0846 75.882-1.1818 14.004-0.0537 27.928-1.1172 41.8-3.184 7.2244-1.0763 14.56-1.4403 21.856-1.9868 2.5925-0.1941 5.1838-0.025 6.8518 2.6031 1.2695 1.9998-1.6011 5.1849-6.0256 6.2206-26.623 6.231-53.478 10.692-80.894 11.653-16.599 0.5817-33.154 2.3589-49.752 3.0526-11.95 0.4998-23.937 0.0975-35.908 0.0975z"/>
	<path d="m1986.1 1441.2c0.1147 10.679-0.3083 21.29-5.0271 31.193-1.1406 2.3936-1.8257 5.1475-3.4521 7.1373-3.7227 4.5538-7.509 10.552-14.286 8.9562-7.3215-1.7236-7.3044-8.8878-7.0615-14.763 0.6423-15.536-2.595-30.308-7.0356-45.042-2.2183-7.36-6.2083-12.966-11.9-17.893-18.126-15.693-38.882-25.666-62.809-27.634-14.78-1.2155-28.482-6.0328-42.515-9.8951-10.77-2.9641-15.946-11.198-19.197-20.987-0.8899-2.6804 0.3562-5.514 2.8286-6.7994 1.5415-0.8011 4.0593-0.8306 5.679-0.1351 3.0066 1.2906 5.8428 3.1479 8.459 5.1495 14.616 11.182 31.463 16.934 49.214 20.594 16.915 3.4879 33.794 7.1539 50.732 10.524 11.228 2.2345 21.405 7.0632 31.586 11.977 16.603 8.0137 25.264 20.958 24.794 39.643-0.0671 2.6563-0.0095 5.316-0.0095 7.974z"/>
	<path d="m1291.8 1370.7c26.222 4.2202 59.876 2.6753 90.843 18.12 17.748 8.8519 36.928 14.828 55.407 22.236 1.7695 0.7094 3.2346 2.4989 2.1489 4.7382-0.9155 1.8881-2.7913 3.0157-4.8125 2.4802-22.451-5.948-44.876-11.997-67.297-18.058-3.2134-0.8687-6.4751-1.6917-9.5378-2.9619-34.126-14.154-69.256-11.414-104.21-5.1345-19.047 3.4216-36.483 12.482-53.971 20.675-18.692 8.7574-37.188 17.932-55.821 26.818-2.9524 1.408-6.1267 2.4373-9.3008 3.2351-0.8469 0.2131-2.1594-0.9772-3.0671-1.748-0.2463-0.209 0.1243-1.27 0.3591-1.8835 0.2324-0.6073 0.5361-1.2712 1.0046-1.6917 22.842-20.496 46.161-39.9 75.933-50.385 24.698-8.6986 49.437-15.906 82.321-16.44z"/>
	<path d="m1616.8 1845.2c-27.071-2.2649-54.573-3.6245-80.631-12.176-19.783-6.4922-37.236-17.761-50.117-34.846-7.6099-10.094-15.14-20.25-22.584-30.466-2.4822-3.4063-3.0579-7.257-1.5823-11.362 0.8223-2.2891 4.8491-4.0404 6.4641-2.5121 1.916 1.8137 3.5513 3.9224 5.4453 5.7618 22.107 21.467 46.1 40.221 74.557 52.787 18.613 8.2183 37.861 12.325 58.247 11.253 24.593-1.293 49.2-2.3372 73.804-3.3948 1.7622-0.0759 4.4009-0.5911 4.46 2.4375 0.042 2.1511-1.7141 3.1426-3.4644 4.1624-19.936 11.617-41.067 18.986-64.6 18.355z"/>
	<path d="m2362 941.18c-0.5615 3.8781-1.0354 9.8807-2.3362 15.699-9.1604 40.97-1.3203 79.14 18.541 115.43 9.8928 18.076 20.027 36.036 29.247 54.451 2.2502 4.4946 8.9805 11.183 2.3291 15.231-4.3889 2.671-8.4041-5.0806-11.677-8.9794-18.836-22.44-36.553-45.667-49.363-72.253-4.9443-10.261-8.8394-20.658-9.3262-32.287-0.304-7.2559-2.2017-14.431-3.0784-21.679-3.2063-26.513 0.8455-51.576 15.347-74.45 1.0574-1.6676 2.2314-3.3484 3.6902-4.6403 0.8308-0.7357 2.46-1.1403 3.5264-0.8755 1.0186 0.2529 1.863 1.4965 2.6074 2.4432 0.3687 0.4692 0.4595 1.2483 0.4714 1.891 0.0497 2.651 0.0206 5.3033 0.0206 10.02z"/>
	<path d="m1516.2 666.03c0.4795-3.1031 0.665-4.41 0.886-5.7108 0.4333-2.5502 4.2983-4.1653 6.1892-2.5859 1.0046 0.8392 2.1809 1.5638 2.9429 2.59 14.306 19.267 26.764 39.45 32.709 63.11 6.6418 26.434 10.044 53.361 13.022 80.371 0.0718 0.6508 0.1804 1.4467-0.1104 1.9569-0.5945 1.0428-1.2788 2.4146-2.2444 2.7599-0.991 0.3545-2.7529 0.0542-3.5042-0.6638-4.9082-4.6909-7.5464-10.838-10.019-16.97-5.7007-14.137-11.737-28.175-16.612-42.599-7.2056-21.318-13.707-42.881-20.101-64.46-1.8627-6.2875-2.3371-12.987-3.1579-17.798z"/>
	<path d="m1673.9 734.73c-1.6553 25.121 0.0557 51.153-4.3472 76.835-0.5554 3.2394-1.1235 6.5864-2.4578 9.5342-0.6287 1.389-3.3081 2.7863-4.8818 0.5707-1.8713-2.6342-3.6589-5.5106-4.6523-8.5535-3.949-12.096-5.2295-24.681-5.8579-37.306-1.791-35.969 1.478-71.706 5.5073-107.38 0.6619-5.8606 2.7375-11.58 4.4207-17.288 0.2583-0.876 1.9207-1.8191 2.9592-1.8488 1.0442-0.0298 2.8538 0.8516 3.0637 1.6615 1.49 5.7418 3.0137 11.516 3.8596 17.376 3.146 21.793 2.1792 43.76 2.3865 66.394z"/>
	<path d="m1728.9 1318.4c-7.218-0.9177-14.414-2.0974-21.658-2.7067-27.806-2.3383-55.385 18.424-61.014 45.851-0.6628 3.2303-0.6077 6.603-1.1763 9.859-0.4414 2.5262-0.9116 5.5587-4.4817 5.3129-2.9404-0.2025-4.5291-2.5704-5.4402-5.0529-5.7427-15.645-7.4695-30.909 4.0771-45.09 3.7515-4.6077 6.6228-9.9346 10.396-14.522 10.98-13.348 25.154-18.946 42.353-16.514 3.937 0.5566 7.8962 1.0884 11.762 1.9878 14.809 3.4445 29.586 7.0275 44.37 10.578 1.6245 0.3903 2.3518 1.4657 1.8359 2.8983-0.4246 1.1794-0.8899 2.6689-1.8235 3.2874-5.8296 3.8628-12.473 4.0188-19.202 4.1108z"/>
	<path d="m2173 1020.6c-2.5061-1.2811-3.6311-3.2594-2.8552-5.0427 1.8416-4.2328 3.7874-8.5692 6.5276-12.239 25.227-33.783 57.28-58.932 96.238-75.141 1.5771-0.6561 4.0879-0.5367 5.5483 0.2982 3.1616 1.8074 1.6494 5.0061 0.3289 6.8956-3.4009 4.8656-6.9312 9.8159-11.242 13.841-27.743 25.907-57.389 49.418-89.512 69.714-1.5678 0.9906-3.6161 1.2204-5.0334 1.6742z"/>
	<path d="m2196.2 865.47c2.3416 2.6769 0.5635 4.9574-0.7627 7.2118-8.4397 14.347-16.652 28.837-25.433 42.973-15.471 24.904-30.743 49.892-42.487 76.85-0.7844 1.7999-1.9426 3.5642-3.3398 4.9194-0.772 0.749-2.4895 1.0079-3.6218 0.7605-1.072-0.234-2.4783-1.2358-2.8054-2.2124-2.1992-6.5664-1.3347-13.364 0.3306-19.711 12.093-46.096 36.366-83.95 76.303-110.95 0.3915-0.2648 1.2031 0.0913 1.8158 0.1575z"/>
	<polygon points="1695.8 1817.7 1695.9 1816.7 1697 1817.3"/>
	<path d="m2047 3021.8c1.2623-0.9553 1.3544-2.0217 0.106-2.9761-0.231-0.1768-1.312 0.1987-1.4185 0.5151-0.5366 1.5955 0.1355 2.3528 1.7969 2.1714 0.0405-0.0127-0.4844 0.2896-0.4844 0.2896z"/>
	<path d="m1559.9 2825.7c-1.2007-0.4988-2.4011-0.9978-3.6018-1.4968 1.2271 0.4722 2.4539 0.9441 3.6992 1.4084 0.0181-0.0078-0.0974 0.0884-0.0974 0.0884z"/>
	<path d="m1497.3 1326.8c0.4397 0.3739 0.97 0.6876 1.2766 1.15 0.1321 0.1997-0.1992 0.7065-0.3201 1.0737-0.1582-0.8813-0.3167-1.7628-0.4512-2.6655 0.0238-0.0212-0.5053 0.4418-0.5053 0.4418z"/>
	<path d="m2229.6 3091.6l-0.4441-0.6252s-0.1768 0.2397-0.1643 0.239c0.0122-1e-3 0.6084 0.3862 0.6084 0.3862z"/>
</svg>
