<?xml version="1.0" encoding="UTF-8"?>
<svg viewBox="0 0 107.5 100" xmlns="http://www.w3.org/2000/svg">
 <g transform="matrix(1.25,0,0,-1.25,0,100)">
  <g transform="scale(.24)">
   <path d="m95.6875,320.766c-10.0547-30.621-2.0586-62.614-.457-93.918 2.9687-21.481 4.5664-43.649 8.2225-65.129l-1.14-1.141c-13.938,14.168-21.9341,30.848-30.8442,47.074-3.1993.684-.4571-3.199-2.0547-4.343-7.5391,1.144-13.25,6.398-20.336,8.226-2.5117,5.485-8.6797,6.856-8.6797,13.254h-1.1406c-.457-1.828 1.3711-3.656.457-5.027l-5.4843,5.027c6.8515-13.48 21.4765-19.422 34.039-24.68 9.3672-15.765 17.3633-35.191 35.1835-44.558 1.828-3.656 1.145-8.457 2.059-12.571-2.973-2.054-6.1722,1.602-9.8245,1.145-24.6758,3.883-32.2148-23.309-49.8047-32.906-13.9375,4.797-26.7305,11.652-38.3828,21.48l.45703-3.886c10.05077-9.825 22.39067-13.254 34.03907-19.196-1.5977-3.883-7.082-2.742-8.2227-6.168h2.7422c1.8282-1.828-1.3711-2.972-1.1445-4.8006 4.8008,2.2856 4.3437,9.5976 10.5117,9.8286 9.1367-4.344 20.332-4.114 30.1563-7.086-1.1446-4.5707-2.9688-10.2816-.6875-14.8519 4.5703-9.1407 14.625-6.8555 21.9336-10.5118 2.0546-2.9687 3.1988-7.5429 1.1445-10.9687-8.4531,2.0547-20.1055,1.5977-23.5352,10.9687-.9101-.6875-2.2812-.457-3.4257-.457 5.4843-9.5976 17.8203-9.3672 27.4179-12.1133 3.1953-2.0547.9102-6.625 2.7383-9.3672 2.516-8.2265 3.887-16.9101 9.367-23.9921 2.742-11.1993 15.535-18.0547 23.531-24.67973 1.145.45703.457,1.82812.688,2.74219-18.277,8.91014-25.816,27.42184-31.301,45.01564l-.457,8.2265c3.656.4571 7.996-.6875 10.969-3.4257l-1.828-3.8868c11.191,4.5704 27.644,6.3985 34.726,18.7383 .457,6.6289-2.742,13.2539-5.484,19.1953 .684,2.5118 3.656,1.8282 5.484,3.1993 3.196-1.8282 2.282-6.3985 4.797-9.1407 2.742-6.1718 9.137-5.7148 13.25-9.3672 4.571,3.4258 3.656,10.2813 8.227,14.1641 52.773-10.9687 104.633-37.4766 161.062-26.7344 6.399,1.1446 10.739,6.168 12.797,11.8828 3.652,11.1954-10.055,14.168-15.535,20.336-21.934,15.3127-52.777,15.9957-78.363,16.4527-.914,2.516 2.054,3.657.683,6.629-9.593,7.313-24.445,4.571-35.64,4.34 .687,6.629 10.281,8.914 14.168,13.254-2.286-.684-1.371,2.285-1.602,2.742l-19.191-17.593-15.305-1.602c8.91,8.684 21.016,17.598 31.754,26.281l23.988,7.77c4.801,5.711 9.598,12.34 16.449,14.625l-3.195,3.426-13.254-16.454c-10.281-2.511-20.332-5.711-30.156-9.824l-4.797,2.742-28.559-27.422c-4.339,3.657-9.136,6.168-13.707,9.141 32.668,16.223 64.426,47.988 68.539,85.692-1.601,4.343-2.968,8.226-7.769,10.285-21.473-1.828-39.523-12.114-57.57-22.395-14.164-13.484-28.332-27.652-33.356-46.16-1.828,1.141-4.57-.23-5.941,1.828 2.285,7.082 0,14.852-3.883,20.793 8.68,8.684 16.219,17.824 23.074,27.879-4.57,1.828.227,6.172.457,9.367 .684.231 1.598.461 2.285,1.145-.687,0-1.371,0-1.828-.684-2.285,12.109 12.567,18.508 11.653,30.848 .683,3.883-3.657,7.312-.688,10.969l-3.656-1.145c4.57-6.168 2.972-14.395-1.141-20.336-9.137-6.855-8.453-17.824-12.109-26.734l-2.742-1.145c-5.481-11.195-11.879-23.992-23.532-30.848 2.973,20.567 13.481,39.305 14.168,61.469-1.144,3.656-1.601,9.141-5.941,9.828-2.516.911-3.656-1.375-5.484-2.058-1.829,12.797-2.969,28.105-5.481,40.445-.687-9.141 6.168-20.336-1.601-27.879l-1.141.457c-4.113,11.199-11.426,22.395-2.285,33.594-.231.684.683,1.141 1.14,1.598 2.743-.457 2.516-4.34 3.2-6.625 .914,8.453-5.485,16.222-7.082,24.679 6.168-9.828 2.511-21.48-1.598-31.308-1.371-2.285-3.656-2.285-5.941-2.055l-6.168,20.793c1.14-7.996 7.308-17.594 1.14-25.137l-3.199-10.968c3.199,4.57 2.516,16.683 12.566,14.167 18.735-22.847-.914-51.183 1.602-76.777 4.566,20.336 1.598,42.274 10.965,59.867 4.34-5.937.914-15.082 1.597-22.621-1.371-26.277-8.222-51.644-14.164-76.781-2.968,24.223-1.14,51.187-1.597,75.641l3.199,12.793c-3.199-5.254-5.027-12.11-5.027-19.192h-1.602l2.285-4.57c0-26.281.231-56.215-2.285-84.324-.453,2.285-1.141,6.172-1.598,9.371-6.398,28.336-7.7653,59.414-11.4215,88.203 4.3398.687 6.3945-5.024 10.2815-7.082 .914,2.742-4.344,3.883-5.485,7.082v15.312c.227-5.257-.2301-10.054-1.5973-14.855l-4.3438,4.574c1.6016,24.219-6.3945,49.129 2.7422,71.75 1.8282,3.656 6.6249,6.399 10.9689,4.344 1.824-1.145 3.652-2.516 5.48-3.887 0,2.973-5.027,4.57-7.765,6.172-3.887-.23-8.4534-1.145-9.8245-5.484" fill="#231f20"/>
   <path d="m100.027,316.422-.4567-.227 .4567-2.742 .684.227-.684,2.742" fill="#231f20"/>
   <path d="m100.03 262.04h0.68359v2.7422h-0.68359v-2.7422z" fill="#231f20"/>
   <path d="m128.586,243.984c.457-31.761-11.195-59.64-13.25-91.175 1.824-.231 2.738,1.828 2.281,3.425 5.485,28.793 20.106,53.93 21.477,84.325-.684,3.199-.457,6.625-3.426,8.91-3.199.457-5.254-3.43-7.082-5.485" fill="#fff"/>
   <path d="m231.16 223.65c1.602-3.429 6.168-5.027 8.227-8.683 0.683 3.656-1.602 11.883-8.227 8.683" fill="#fff"/>
   <path d="m208.09,216.563c7.769-2.969 18.277-10.512 21.933-20.336h1.598c.688.683-3.656,2.968-.457,4.339 1.828,0 1.145-2.511 3.199-1.597-1.828,9.597-10.281,16.91-19.191,20.336-2.285-.914-5.254-.457-7.082-2.742" fill="#fff"/>
   <path d="m190.043,207.195c8.91-5.941 21.473-8.457 25.816-19.652 3.426-.23 2.739-5.258 6.395-3.43 .914-.226-6.168,2.516-2.055,5.485 2.512.687.684-2.055 1.598-2.055-2.285,10.969-15.535,19.422-26.274,22.852-1.828-.915-4.113-.915-5.48-3.2" fill="#fff"/>
   <path d="m142.29 191.88 11.422 14.855-1.598 0.914c-4.797-4.113-5.941-10.742-9.824-15.769" fill="#fff"/>
   <path d="m90.66 168.8 3.4257-2.742c-7.539 12.339-16.676 23.992-21.473 37.246 0.457-13.254 10.277-23.766 18.047-34.504" fill="#fff"/>
   <path d="m169.707,191.199c14.621,1.598 26.731-6.855 34.043-20.109 2.512-.914 4.566-2.516 5.938-4.57-.458-.457-1.598-1.829-2.055-.457l-1.828,1.597c-.684-.226-.457-.914-.457-1.597 1.371.457 1.828-1.145 3.199-.458 2.969,1.141.683,2.969.683,4.797l-.683-.457-.914,1.145c4.34,4.113-2.969,9.598-5.028,14.168-6.851,7.996-16.906,12.34-27.414,10.969-2.511-1.372-3.425-2.973-5.484-5.028" fill="#fff"/>
   <path d="m133.609,173.145c.231-1.829 1.829-3.2 2.743-4.797 0,2.968.23,9.14-4.567,10.968-4.801-1.371 2.281-3.656 1.824-6.171" fill="#fff"/>
   <path d="m154.859,173.832c13.02,0 26.043-5.258 31.754-16.453l1.828-1.828-.683-.457c.226-.231 2.742-.914 3.883.457v1.14l-5.028.688c-.457,1.141.914,1.828 1.145,2.742 1.597.227 2.512-1.601 3.883-1.828-.457,7.996-8.911,12.109-14.164,17.137-5.942,2.742-13.938,3.886-20.332,2.058l-2.286-3.656" fill="#fff"/>
   <path d="m120.36 155.09 13.707 4.34c-0.457 7.312-2.281 14.168-8.222 18.738-1.828-7.77-5.254-14.625-5.485-23.078" fill="#fff"/>
   <path d="m205.805,174.746c0-.457 0-1.144.687-1.601l.457,1.601h-1.144" fill="#231f20"/>
   <path d="m131.78 151.9c2.969-1.829 6.168-1.145 8.906-1.145-2.281 3.656-6.168-0.227-8.906 1.145" fill="#fff"/>
   <path d="m189.355,148.465c.458.23.688.687 1.145.687l1.141-1.144-.457,2.742-1.829-2.285" fill="#fff"/>
   <path d="m190.5 120.59c9.82 5.715 20.332 14.625 30.156 23.082l-2.742 2.055-27.414-25.137" fill="#fff"/>
   <path d="m97.9727,140.926c.914-1.828 3.6523-3.656 5.9373-3.887l.457.457c-.914,2.742-4.5701,1.371-6.3943,3.43" fill="#fff"/>
   <path d="m69.871 132.01c4.7969 0.914 13.25 2.285 15.305 8.914-5.4805-2.059-10.738-4.801-15.305-8.914" fill="#fff"/>
   <path d="m81.523 132.7c-12.109-3.199-20.793-10.969-30.16-20.34-0.6836-0.457-0.9141-1.371-1.8281-1.14 7.7695-4.344 18.508-6.629 27.418-5.485 2.2852 7.77 4.5703 17.368 14.391 18.739 4.1132 1.828 11.652 0 10.969 7.082-2.7427 4.113-7.77 7.543-13.25 7.543l-7.5391-6.399" fill="#fff"/>
   <path d="m116.02,133.156c.683-.457 1.14-1.601 2.054-1.601l-1.597,2.058-.457-.457" fill="#fff"/>
   <path d="m111.68,129.27c-1.828-2.286 1.371-4.571-1.145-6.625 3.199-.688 0,5.484 4.344,5.027-1.828,0-1.145,2.742-3.199,1.598" fill="#fff"/>
   <path d="m169.25 128.13c4.57-2.059 8.91-5.484 14.164-6.399-3.195 4.571-8.453 6.856-14.164 6.399" fill="#fff"/>
   <path d="m156,117.16c1.145,2.742 2.285,7.77 1.145,10.512-3.43-2.516-.231-7.77-1.145-10.512" fill="#fff"/>
   <path d="m163.77,115.559c5.48.914 11.878.23 16.906,2.742-3.887,2.972-8.91,5.258-13.711,7.086l-3.195-9.828" fill="#fff"/>
   <path d="m162.62 111.68c-2.512 0-1.598-3.43-3.426-4.801 30.844-0.684 56.887 5.258 87.274 5.484 1.371 1.145 3.199 1.602 4.34 3.2 0.683 5.027-5.485 4.57-8.684 6.171-20.332 1.598-43.406-2.285-63.738-7.312-5.485 0-10.512-1.828-15.766-2.742" fill="#fff"/>
   <path d="m110.54 118.3-0.683 2.742v-2.055l0.683-0.687" fill="#fff"/>
   <path d="m81.98 108.02c0.9101-1.145 4.7968 1.371 6.625 3.656v2.285c-0.9141-2.973-4.1133-4.57-6.625-5.941" fill="#fff"/>
   <path d="m206.49 106.88c23.988-5.711 47.52-1.598 70.137 2.742-23.988 2.285-46.149-1.828-70.137-2.742" fill="#fff"/>
   <path d="m243.73 101.39c0.458-2.0551-1.371-6.6254 1.598-8.2269l51.633 5.9414 10.969 4.3435c-20.336 10.969-42.723-1.371-64.2-2.058" fill="#fff"/>
   <path d="m155.54 102.99v-1.144c28.559-2.9691 57.574-7.0824 85.902-9.3675l-1.597 7.7695c-26.731 4.113-56.891 8.453-84.305 2.742" fill="#fff"/>
   <path d="m90.203 100.71c2.7422-2.7422 9.1367-4.8007 8.2266-9.8281 1.3672 0.457 2.2813 2.0586 3.8833 2.2852-3.8833 2.5156-8.2271 5.0273-8.9107 10.285-1.1445-0.23-2.0585-1.828-3.1992-2.742" fill="#fff"/>
   <path d="m136.352,101.848c.23-.227 1.144-1.598 2.058-1.141v1.828c-.687,0-1.144-.914-2.058-.687" fill="#fff"/>
   <path d="m302.44 97.965c2.743-3.8867 6.168-8.457 10.282-11.426l19.875 5.0273c-2.512 4.1133-8.454 5.0274-12.567 7.5391-5.254 4.5705-12.562 0.9145-17.59-1.1407" fill="#fff"/>
   <path d="m130.184,100.707c.687-.23.687-.914.687-1.6015-2.742-2.0547-2.516,2.9725-5.484,1.1445 .683-2.9727 4.34-1.3711 5.941-1.6016-.23.4571.227.6875.457,1.1446l2.738-1.1446v2.0586h-4.339" fill="#fff"/>
   <path d="m120.816,100.25c-1.371-1.1445.457-2.2852.688-3.1992h1.598c-1.372.6836.457,3.8832-2.286,3.1992" fill="#fff"/>
   <path d="m153.26 98.648c43.637-9.3671 84.531-25.363 128.86-32.902 7.082-1.6016 10.965 5.0234 16.45 7.5391-47.524 6.3984-95.727 15.539-141.42 25.82l-3.887-0.4571" fill="#fff"/>
   <path d="m248.07 90.879 1.145-1.1406c19.187-1.1445 40.207-4.3438 59.168-4.3438-3.653 3.1993-5.938 9.1407-10.278 11.656-17.82-1.3711-32.671-4.1133-50.035-6.1719" fill="#fff"/>
   <path d="m150.52 95.906c-0.227-4.3399 4.113-9.1407 7.769-11.652-0.226 4.7969-2.969 10.512-7.769 11.652" fill="#fff"/>
   <path d="m192.78 94.766c38.84-11.656 81.563-14.855 122.69-20.797 1.597 3.1992-0.457 6.3984-1.602 9.371-37.238-1.371-75.621 7.9961-114 10.969-2.281 0-5.023-0.457-7.082 0.457" fill="#fff"/>
   <path d="m157.6 94.309c1.597-4.8008 3.195-11.426 7.082-15.539 0.914 4.5703 5.023 7.7696 5.023 12.797-4.109 0.9141-7.766 2.5117-12.105 2.7422" fill="#fff"/>
   <path d="m78.7813,86.9961c1.371-2.9727 3.6523-1.3711 5.9375-.9141 .914,2.5118-1.1407,5.711-3.8829,7.0821-2.0546-.9141-4.7968-4.1133-2.0546-6.168" fill="#fff"/>
   <path d="m134.52 90.879c2.059-4.5703 6.399-7.9961 9.368-12.109 0.687 5.0274-2.055 14.852-9.368 12.109" fill="#fff"/>
   <path d="m118.76 89.738c-2.285-5.7149-3.657-13.024-10.965-14.625h-6.629c1.602-3.8867-1.3711-10.742 5.027-10.969 11.422-8.2265 20.106 6.3985 30.614 8.6836l5.941 2.2852-12.566 15.309-11.422-0.6836" fill="#fff"/>
   <path d="m327.12 87.68c0.457-5.7109 4.801-11.195 8.684-15.996 1.828-1.1406 5.027 0 7.082 1.1445 1.371 4.1133 2.742 9.1407-0.914 12.566-4.34 5.9414-9.367 2.9727-14.852 2.2852" fill="#fff"/>
   <path d="m316.61 84.938c1.829-5.0273 1.141-13.711 9.368-12.566l5.941-0.6875c-5.027 4.3437-4.344 21.023-15.309 13.254" fill="#fff"/>
   <path d="m101.625,81.0547c.23-.9141-.457-2.0586.688-2.7422 .914,2.5117 2.742,4.5703 4.796,6.625l5.485.457c-4.344,3.4297-8.91-1.1406-10.969-4.3398" fill="#fff"/>
   <path d="m290.79 65.746c13.023-4.1133 32.898-4.3438 45.691 2.7383-14.621 0.6875-34.496 11.199-45.691-2.7383" fill="#fff"/>
   <path d="m116.48 59.117v-1.6016c9.136 5.2578 22.39 4.8008 27.414 14.856-9.825-2.7422-18.504-8.2266-27.414-13.254" fill="#fff"/>
  </g>
 </g>
</svg>
