<?xml version="1.0" encoding="UTF-8"?>
<svg viewBox="0 0 136.25 236.25" xmlns="http://www.w3.org/2000/svg">
 <g transform="matrix(1.25,0,0,-1.25,0,236.25)">
  <g transform="scale(.24)">
   <path d="m346.25,757.25c-.328-3.746 1.277-5.875 0-8 7.051-.117 16.641.031 22-5 2.473,1.895 5.445,3.895 9,4 .59-1.055.566-1.887 1-2l-8-6c6-5.098.402-11.609-1-16 10.414-1.281 16.738-13.543 21-21-1.082-13.055-10.848-19.453-19-25-9.203-3.969-21.223-1.551-27,5-3.937,3.727-5.453,9.184-7,14-6.355-4.176-15.863-1.41-22,3-3.082-6.238-4.172-15.375-1-23-3.809-.277-6.621,3.551-6,6-.758,7.559-.145,14.629 4,21-5.578,2.004-11.395,2.582-17,4l-1,3 20-1c1.875,6.16 7.359,8.508 11,13-2.168,3.383-5.559,1.395-9,3-11.793,5.074-21.891,16.609-22,30-.488,9.965 8.465,17.219 16,21 14.734,2.68 30.734-6.52 36-20"/>
   <path d="m342.25,755.25c4.203-12.598-12.922-13.785-16-25-11.012-.895-17.039,7.191-23,14-4.531,5.57-4.309,13.484-1,20 4.906,4.094 7.559,9.438 14,10 11.453-1.48 23.344-8.48 26-19" fill="#fff"/>
   <path d="m366.25,734.25v-1c-3.695,3.953-6.504,7.781-12,10-.625,2.539 2.242.789 4,1 3.609-2.027 7.672-5.891 8-10" fill="#fff"/>
   <path d="m361.25 726.25-5-5c-4.793 6.676-12.543 12.727-20 13 1.305 3.234 6.766 4.75 10 8 7.164-3.957 12.891-7.871 15-16" fill="#fff"/>
   <path d="m348.25,719.25c-1.293-3.285-3.816-4.047-7-5-2.184,2.77-7.051,7.488-12,9l4,7c6.594-.332 13.57-4.277 15-11" fill="#fff"/>
   <path d="m385.25,702.25c-.594-9.43-9.121-16.277-16-20-8.277-1.687-16.191-1.465-21,5-7.797,4.723-3.746,15.445-3,22 9.953,3.566 23.262,17.367 33,5l7-12" fill="#fff"/>
   <path d="m335.25 709.25c1.824-3.848-2.859-7.465-7-9-3.773 1.754-10.437 1.941-9 8-1.363 11.445 14.938 13.074 16 1" fill="#fff"/>
   <path d="m180.25,642.25c4.387-7.609-3.32-14.898-7-21-5.035-7.41-15.492-8.785-24-9 .801-7.07-.195-12.879-1-22 5.133-.168 4.551-5.988 4-9-1.773-5.676-6.473-9.711-2-16-2.969.41-5.398,2.98-7,6-5.488-3.238-3.629-11.211-7-16-6.23,4.223 1,9.441 1,16-7.273,1.563-7.078,8.641-6,14-5.125-1.078-7.012,6.063-10,5-6.879-9.082-18.113-8.352-28-12-6.875.363-12.5781,5.109-15,11 1.1172,7.066-.7227,15.871 6,20 6.8711,5.078 14.543,11.113 24,6-.223,7.359 1.27,16.066 8,22-.992,5.578-6.324,8.645-6,14 1.992,2.918 4.836.336 6-1 4.008-7.562 7.57-14.328 17-16 1.281-2.797 2.078-4.07 5-6 2.469.945.168,8.098 1,11 4.074,8.629 11.355,15.512 22,16 11.125,3.07 15.441-6.637 19-13"/>
   <path d="m175.25 642.25c3.148-7.02-2.414-12.285-6-18-5.547-7.781-15.48-5.422-23-7-4.051 5.238-2.547 14.363-2 21 3.184 7.43 11.223 11.793 18 13 5.809 1.773 11.051-4.625 13-9" fill="#fff"/>
   <path d="m393.25,626.25c3.543-6.289 5.82-14.273 7-21 7.031,2.328 13.508-4.52 19,0 3.488,3.566 5.223,6.016 10,8 8.84-6.949-6.164-6.945-7-13 3.379-7.355-3.078-14.676-7-19 4.996-1.957 11.184-4.215 13-9 2.047-6.16 4.324-14.141 0-19-6.414-6.512-15.715-11.254-24-7-7.711,4.945-11.645,13.391-10,22-2.187,1.828-5.16-.176-8-1 1.359-7.469-6.648-10.578-13-9l-6,3c-6.355-2.809-6.969-9.875-9-15-4.727,1.98-.812,7.703 0,12l4,6c-3.273.082-7.867-.207-12,1v2c5.512,1.34 12.105-1.344 15,4 5.367,6.926 9.766,15.141 16,22-6.859.66-12.957,6.25-17,11-4.387,6.738-5.82,15.113-4,23 2.289,4.922 8.199,7.672 13,9 7.719-.844 18.129-1.133 20-10"/>
   <path d="m387.25 630.25c3.758-8.461 10.582-17.82 8-27l-10-5c-6.059 3.445-15.707 1.215-18 9-2.32 6.098-4.227 12.402-2 19 4.867 8.625 14.305 3.359 22 4" fill="#fff"/>
   <path d="m133.25,628.25c-.535-2.164-4.285-2.059-5,0-3.867-1.93-8.066-3.066-12-5 .223,3.289 1.184,7.848 5,9 4.105-.957 9.566.559 12-4" fill="#fff"/>
   <path d="m140.25,617.25c-6.078,1.293-16.629-3.414-21-9-2.434.773-3.59,4.141-3,7 3.32,2.867 6.27,4.035 9,6 4.676-5.504 14.141,5.066 15-4" fill="#fff"/>
   <path d="m117.25,595.25c-5.621-7.754-14.449-10.426-24-12-3.8086.699-6.2266,3.684-10,6-1.0039,5.734 1.2891,13.172 6,18 5.1211,4.07 15.293,10.035 21,2 1.023-4.656 4.633-9.758 7-14" fill="#fff"/>
   <path d="m144.25,605.25c-6.715-.555-11.898-7.078-18-9-2.238,1.738-7.191,3.543-4,7 3.66,3.02 6.703,7.52 12,8 4.223-2.832 12.25,1.113 10-6" fill="#fff"/>
   <path d="m411.25,589.25c-.754-.934.066-1.371 0-2-.824-1.43-3.844-5.098-5-2-1.121,4.883-3.91,9.547-7,12 6.262,6.629 8.875-4.281 12-8" fill="#fff"/>
   <path d="m397.25,590.25c.66-4.914 5.551-8.805 3-13-7.086,2.383-9.363,10.363-11,16l2,2c-1.102-4.281 3.93-3.172 6-5" fill="#fff"/>
   <path d="m142.25,597.25c1.633-3.984-3.434-6.344-1-10 2.496,1.016 6.207-.34 7-4-1.789-2.145-3.152-6.273-7-7-1.984.887-5.352-.27-6,2 2.133,6.027 4.363,11.383-4,13 2.246,3.137 6.922,6.34 11,6" fill="#fff"/>
   <path d="m389.25,574.25c-2.648-5.687-11.102,4.969-11-5 1.668-1.336-.461-2.941-1-4-1.996-.121-3.707-1.742-5,0 .574,2.445-3.566,3.395-1,6 2.535,1.004 1.809,4.777 6,4l4,13c2.844-5.031 7.32-8.906 8-14" fill="#fff"/>
   <path d="m426.25,566.25c2.184-7.191-2.535-12.062-8-15-5.113-2.602-11.324-1.18-16,2-5.93,5.039-.309,12.383-3,18 5.379.977 8.801,4.215 13,7 5.844-1.398 14.105-4.129 14-12" fill="#fff"/>
   <path d="m427.25 484.25c7.258-6.219 6.918-18.297 12-26-0.469-21.187 0.707-38.723 8-57 1.625-5.73-1.859-11.051-6-14l-1-16c-3.102-7.496-18.246-12.492-11-21 7.25-9.82 5.57-25.195 2-36l-8-13c4.969-3.52 3.465-12.645 8-15-2.906-13.945-2.008-26.477-12-39 7.156-14.488 10.012-31.656 4-47-4.578-5.617-13.441-9.535-10-18 7.641-12.687-1.109-27.445-8-38-13.066-2.645-6.348-15.75-11-25-10.148-13.262-8.754-37.891-29-40-4.395-14.711-9.039-31.668-22-39l-12-4c-1.785-6.2617 0.039-15.48-7-19-37.883-8.1445-80.375-7.375-122-8-21.367-1.3672-43.047-1.5977-64 4-5.445 4.3125-7.316 11.867-9 17-16.246 9.5391-31.898 16.227-34 35-1.0312 3.4063 2.5352 11.641-5 11 0.4063-0.8281-0.4141-0.3867-1 0h1c-11.031 7.4102-18.039 25.113-24 38 0.1875 4.363 5.4063 12.137-2 14-9.9805 2.371-16.234 17.137-20 29-4.4922 5.871 0.2852 12.824 2 18-8.0742 5.84-20.012 11.172-22 21-0.7266 12.34 0.8242 23.133 9 32-1.582 3.453-5.6875 5.652-9 7 0.9531 3.719-3.6289 3.848-5 7 1.5586 3.508-1.6562 7.77-2 12-2.5937 10.02 2.6016 16.961 6 25-1.8008 4.422-3.2891 10.715-5 14-0.9375 6.375 5.957 14.516-1 18-9.7461 10.32-9.2109 29.48-5 43 1.1992 30.926 18.5 68.371 1 98-1.9062 6.758-3.8008 13.477 2 19 20.012 23.348 51.805 27.465 83 28 15.969 1.898 32.629 1.434 47 3 57.734-1.5 114.42-1.414 171-1 35.809-5.496 78.613 4.977 111-17"/>
   <path d="m401.25,490.25c2.637-4.281 15.961-4.652 9-13l-1-1c-10.582,16.953-34.504,10.949-52,15-56.52,2.188-115.93-5.742-171,0-49.129-5.746-103.9023,2.867-150-18-1.582.109-1.082,3.012 0,4 2.3086,1.004-.9922,2.344-1,4l5-1-2,2c21.1328,10.426 44.0391,9.785 67,12 9.152-1.445 20.527,2.824 30,2 10.91-.578 27.223,1.465 39-1l32,1c32.496,1.418 68.23-2.496 103,1 30.66-3.656 60.777.086 92-7" fill="#fff"/>
   <path d="m402.25,478.25c.941-2.262 3.402-3.582 3-6-39.027-21.488-86.121-21.422-130-23-32.059-1.305-60.82-1.336-92,0-42.93,1.57-82.168-.668-125,4-8.6484,2.605-20.668,5.023-22,15 43.793,18.012 94.938,13.668 143,17 49.047-3.543 103.836,3.262 149,0 27.348,2.902 48.52-.191 74-7" fill="#fff"/>
   <path d="m442.25,406.25c.121-4.715 2.863-11.043-3-15-6.344-.285-6.547,7.223-12,9-5.793-1.465-12.91-2.516-16-8-3.621-11 5.203-23.332-3-34-6.48-7.68-18.176-8.602-29-6-5.047,11.176 1.402,33.09-16,37-7.934-.703-14.25-3.027-20-7-7.395-19-18.691-35.359-17-55-.027-10.414 9.84-15.273 9-25 3.707-7.027 5.531-16.246 2-23-1.816-5.602-7.727-8.352-12-9-10.395-2.277-17.406.418-25,6-6.262,20.648 15.434,36.297 0,56-4.531,11.695-19.004.848-20,14-.969,6.074 2.563,13.063-1,18l-17,14c-12.984,3.672-23.594-3.117-31-12l-4-16c-2.297-18.082 10.32-43.859-14-54-6.801.176-14.809-2.937-19,4-7.277,30.063 8.492,57.547-1,88 .914,5.633-3.516,11.172-8,14-5.785,2.461-13.305,1.84-19,0-4.594-8.293-9.937-20.648-20-23-15.379,1.813-1.516,20.598-11,26-5.277,3.344-14.406,4.852-20,1-9.422-11.566-1.211-30.969-20-34-9.9492,3.832-.7852,18.582-12,21-7.4219,1.852-13.3672-2.148-17-8-7.1289-21.355-6.1875-47.227-19-67-6.1836-3.867-13.832-9.074-22-5-8.3633.973-8.918,10.992-10,16 1.8984,39.148 14.0508,71.32 9,112-1.5352,7.02-7.6562,11.773-7,20 4.3438,6.641 4.5781,14.969 14,16-4.957-5.324-.5391-11.281 2-17 6.2266-8.699 17.4375-10.262 27-13 87.383-3.305 177.734-6.66 265-1 32.227,4.754 70.172,5.363 92,31l2,6c25.723-18.434 10.195-52.176 23-77" fill="#fff"/>
   <path d="m436.25 380.25c1.871-11.523-8.715-17.477-16-22-2.469-1.457-4.965-1.387-7-2 9.047 12.918-6.812 27.117 8 38 9.809 5.102 6.105-8.133 13-9l2-5" fill="#fff"/>
   <path d="m132.25,400.25c3.91-8.918-3.508-20.797 8-26 8.215-4.934 12.625,3.695 19,8 7.219,4.902 4.781,22.059 20,17 9.133-3.539 10.137-12.32 11-21 2.063-5.992-.613-12.168 0-18 2.754-8.016-1.242-16.656-3-25-15.074,2.563-32.242-.293-49,1-22.828-1.023-47.0547-2.844-71,0 2.9492,6.492 13.3828,7.035 12,14l-18-12c-4.7148,7.793 7.8047,8.277 10,14l8,10c-2.1758,2.809-3.5781-2.57-5-3l-10-5c-2.2734,7.48 13.6211,9.535 11,18l-8-5c-4.0469,8.617 14.1875,4.773 6,12-.8008-.723-2.0859-1.937-4-1-1.3008,3.316 2.9688,6.949 5,9 16.918,4.922 4.2617-15.562 16-19 3.4961-3.242 9.7422-3.414 14,0 11.488,8.234 8.148,22.914 14,34 4.875-.133 11.203,2.609 14-2" fill="#fff"/>
   <path d="m370.25 375.25c3.215-8.469-1.691-20 5-27-13.66-3.641-27.875-5.328-44-5 10.664 13.16 5.105 37.906 28 41 4.234-1.766 9.172-3.988 11-9" fill="#fff"/>
   <path d="m275.25,359.25c.711-6.414-1.949-12.176 0-19-13.082-3.703-28.051-2.449-42-3-2.918,8.523-.914,20.555 4,29 6.367,7.496 14.711,7.68 24,6l14-13" fill="#fff"/>
   <path d="m430.25,332.25c-.937-10.375-3.336-21.562-12-29-21.531-14.223-49.402-12.195-75-16-2.039,14.164-4.176,27.145-13,39l1,12c17.73,2.543 33.914.008 51,6 7.73,2.066 16.824-.691 24,6 6.695-2.492 12.332,5.27 17,2 4.676-5.328 6.156-12.039 7-20" fill="#fff"/>
   <path d="m282.25,333.25c6.906-.375 14.371-1.832 16-9 4.926-11.77-4.145-23.187-5-35 .055-1.922.414-4.016 0-6l-50-4c-54.066-4.016-110.797-5.766-169-4l-29,2 16,14c-7.5547-2.23-13.5156-6.648-21-12-1.8164.609-3.4727,1.074-5,2 7.1055,4.754 13.0781,9.59 18,16-8.1875-3.82-15-9.047-23-13-2.4922,1.328-4.8984,4.73-1,7 6.2695,3.695 13.1094,9.758 19,14h-4l-20-12h-1c10.8945,12.156 32.2969,17.395 35,36 16.3203,5.871 28.9766-3.652 45,1 27.465.383 57.473.379 84,3-1.426-14.16-2.805-33.711 10-43h19c9.797,6.461 14.621,15.078 18,27-1.27,3.859-1.488,10.949-1,17l8-1c11.688,1.055 24.98-.566 37,2l4-2" fill="#fff"/>
   <path d="m421.25 256.25c-11.422-20.105-39.742-19.316-61-25-55.328-5.516-108.34-8.203-165-11-45.535-0.18-88.133-3.16-133 3-7.8242 2.398-15.266 4.691-21 9 2.9961 2.02 8.5391 6.449 13 10l-1 2c-9.1523-0.391-15.473-17.719-24-5 5.6484 3.613 10.773 8.059 15 13v1l-18-10c-2.5625 1.18-2.8594 5.355-1 8 3.3008 3.047 8.7969 5.809 10 9 1.4336 1.738 5.1719 1.215 4 4-6.2812-0.906-11.465-7.434-17-8-4.2383 8.762 9.0898 8.387 10 15-2.7617 1.777-5.7695-1.477-7-3-2.0664 2.867 1.7539 5.262 3 8 5.9961 2.895 9.1289-4.277 15-4 26.961-3.695 52.816-3.168 80-1 47.84-2.18 102.5 0.043 149 6 7.715-4.969 23.473 7.094 25-6 2.527-5.773 10.082-3.902 13-8-2.316-4.254-4.539-9.195-8-12-8.707-0.187-7.062 13.938-17 12-1.402-1.082-0.211-3.199-1-4l4-2c3.578-7.809 13.875-12.262 11-23-0.402-2.094 2.848-5.102 5-4 4.293 5.805-2.195 12.238 3 18 1.781 5.297 7.371 11.395 11 15 9.77-1.48 17.414 3.723 23 11l4 10c3.746-2.645 5.98 2.711 10 0 20.875-1.316 37.324 5.727 57 9l7 5c9.5-11.367 5.691-28.352 2-42" fill="#fff"/>
   <path d="m245.25,267.25c.895-11.945 6.84-22.949 9-35-13.418-3.055-15.547,10.34-25,16-1.164,2.141-4.484,2.648-7,4-1.789-6.23 5.023-16.008-1-20-2.863-.762-2.352,2.559-3,4 4.246,8.043-8.293,21.73 6,23 7.664-6.051 13.273-14.125 21-19 .734,9.223-5.664,18.988-2,27h2"/>
   <path d="m278.25,256.25c-4.488,2.867-10.449-1.551-16-1-2.383-1.164.484-2.91 0-4 4.059-5.262 10.48.809 15-2-1.027-6.457-17.121-.59-11-11 6.395-4.109 12.438,3.223 18-2-4.617-5.641-12.875-2.906-20-4-6.898,6.484-3.332,14.723-6,22-.684,6.984 7.145,3.852 11,7l9-2v-3"/>
   <path d="m205.25,243.25c-1.75-7.594-4.422-13.773-13-16-7.367-1.496-13.914,2.855-17,9-1.965,6.918-.496,14.797 5,20 3.508,3.715 8.988,6.063 13,3 9.605-1.902 7.707-10.187 12-16"/>
   <path d="m157.25,258.25c5.785-8.961 5.043-20.609 11-30-1.668-1.148-4.211-2.746-6-1-2.641,3.797-.848,8.332-5,11-7.473-1.094-13.258.734-21,1-1.551-4.59 6.168-11.891-2-14l-2,1-3,31c10.289,1.449 2.051-9.992 6-16 7.156.695 16.238-2.477 22,2-2.625,3.355.465,9.523-4,12l1,4 3-1"/>
   <path d="m199.25,248.25c1.555-4.602 1.023-8.754-2-12-2.957-2.004-7.203-4.805-11-3-4.047.914-6.883,3.914-7,8-.863,5.527 3,9.586 6,13 5.863.508 11.219-1.727 14-6" fill="#fff"/>
   <path d="m422.25,221.25c.254-8.801-1.785-22.082-12-28-34.652-18.672-77.812-12.047-118-18-75.965-4.137-152.922-13.66-230,0-3.7266,3.184-12.1016,1.754-12,7l14,13-1,1c-6.4258-4.012-11.5391-8.039-18-13-2.0195-.219-6.9687,1.586-5,4 5.7227,4.457 8.4336,11.883 15,15v1c-8.5469-.309-12.9414-8.523-20-13l-5,5c7.1992,4.613 13.5742,9.02 18,17-5.9414-2.52-12.375-9.008-19-12-1.75,1.559-.418,4.438-1,7 5.7305,2.715 10.8555,7.156 15,11-4.7812,3.258-8.3086-3.727-13-5 2.2969,5.09 4.5195,10.027 10,12 30.8789-13.406 65.133-10.613 101-11 19.152.52 37.488.422 55,2 33.891,3.238 68.004,1.035 101,6 33.457,1.516 70.582,2.563 103,13 7.055.129 11.07,9.605 18,6l4-20" fill="#fff"/>
   <path d="m411.25,175.25-2-2c5.09.664 2.383-6.762 1-10-2.402-12.91-14.781-23.402-27-28-61.617-12.512-126.238-13.207-190-16-40.035,2.355-80.988-1.5-119,10 3.0898,6.563 10.7266,11.352 14,18-11.0352-1.012-14.1992-24.684-27-11 2.9375,6.184 11.3594,9.281 14,16l-1,1-17-13c-3.4844,2.059-2.5352,6.199 0,9 2.1367.402 6.3945,3.617 8,8-5.6641-.516-11.418-12.445-16-4-.9219,3.379 1.9336,1.215 3,2 1.9922,4.133 4.9766,6.551 7,9-4.8359,1.379-5.7969-3.18-10-5-3.2344,4.113-.1797,9.031 1,12 3.6563,6.063 9.2344-3.262 14-2 25.6602-1.277 48.484-4.832 74-6l20,1c74.555,1.398 146.387,6.477 219,13l31,9c2.586-3.484.367-8.426 3-11" fill="#fff"/>
   <path d="m393.25 130.25c-2.687-1.934-0.352-7.836-3-11-8.148-10.289-6.566-28.254-22-34-62.207-13.344-129.21-9.8047-191-12-26.191 0.9023-58.781-1.9375-82 7 7.848 7.7461 15.48 12.535 22 21-10.129-3.3633-16.617-11.934-25-18-3.4883-1.1055-2.957 3.0469-5 4 5.5859 6.4492 12.758 9.5859 16 17-0.902 1.688-2.629-0.348-4 0l-14-12c-3.3242-1.1602-1.9336 3.8008-4 5l15 14-1 1-16-10-3 3c3.2852 4.66 7.9102 6.199 11 11-6.6406 2.383-12.496-13.293-16-2 1.0195 4.199 1.5508 8.352 7 8 20.652-5.379 43.59-4.77 65-7 32.352 1.98 67.668-1.922 100 2 50.781 2.09 102.06 2.742 148 16l2-3" fill="#fff"/>
   <path d="m360.25 77.25c-1.523-14.316-7.691-26.23-21-33-15.848-7.4219-33.84-9.8359-51-10l-119-1c-14.336-0.0508-28.531-0.9062-41 4 7.023 9 14.348 17.551 22 25-4.469 2.0469-8.023-5.7734-13-8l-14-14c-2.301 0.5664-3.539 1.0156-5 4l13 13-1 1c-7.621-2.0586-9.437-7.4258-16-12-2.277 1.4844-5.562 3.2461-4 6 4.41 2.0781 5.359 6.2227 10 9l-2 2-13-10-3 4c4.207 1.8945 6.813 5.5703 9 9-3.703 2.0313-8.609-9.5-11-1l1 6c54.527-7.2344 103.12 1.4141 160-1 31.824-0.0664 65.246 2.7539 99 7" fill="#fff"/>
   <path d="m328.25,34.25c.254-8.8164-8.969-10.6445-13-14 .293,3.8789 6.566,4.5352 6,8-5.992.4688-9.965-7.3398-15-10h-4c2.801,3.2539 7.453,5.625 9,10l-2,1c-7.426-3.9062-10.633-14.2344-21-12l6,6c-6.133,3.7266-8.496-6.2109-14-7l-11-1c4.035,2.9727 6.23,7.0781 9,11-9.789-1.6406-11.043-16.60937-25-11l10,9c-3.051,3.0898-7.32-.543-10-3-4.586-4.0078-9.734-9.2812-16-6 2.715,3.9023 7.773,5.8438 10,10-10.395,1.9102-11.242-13.4883-22-10-1.098,4.7617 5.137,4.1719 7,8l-2,2c-8.098-2.2656-9.723-15.55859-22-11 2.043,1.9805 5.434,3.9688 5,7-6.984.0938-9.797-11.082-19-7l13,14c-5.344,1.1367-8.445-5.4453-14-8-2.555-4.3047-6.824-7.9375-13-6 1.758,4.0195 6.418,6.8086 9,12-5.391-1.3633-9.293-6.6719-14-10-1.699-2.3281-5.426-1.3906-9-1l7,9c-7.75-.0977-11.848-12.4883-20-8 .852,2.8008 6.766,5.5547 7,10-7.187.332-10.441-11.6641-18-7l11,8 60,2c32.766-2.3477 67.426.0195 101,2 4.004.3047 8.629,1.8398 14,3" fill="#fff"/>
   <path d="m139.25 22.25-4 7 12-1-8-6" fill="#fff"/>
  </g>
 </g>
</svg>
